<?xml version="1.0" encoding="UTF-8"?>
<!-- Generated by Pixelmator Pro 3.2.3 -->
<svg width="512" height="512" viewBox="0 0 512 512" xmlns="http://www.w3.org/2000/svg" xmlns:xlink="http://www.w3.org/1999/xlink">
    <path id="bookmark-normal-copy" fill="#ffffff" fill-rule="evenodd" stroke="none" d="M 72 485.597656 L 72 81.228516 C 72 50.75354 96.724251 26.027344 127.199219 26.027344 L 384.800781 26.027344 C 415.275757 26.027344 440 50.75354 440 81.228516 L 440 485.597656 L 256 350.615234 L 72 485.597656 Z M 292.058594 282.095703 C 321.741821 282.095703 348.607361 275.738159 367.556641 265.84375 C 386.565887 255.949341 397 242.99646 397 229.923828 L 397 216.072266 C 390.883453 223.208252 382.488159 229.505005 372.59375 234.662109 C 351.605591 245.575928 323.300934 252.111328 292.058594 252.111328 C 279.345764 252.111328 267.113708 251.03302 255.660156 248.994141 C 241.748016 256.010193 227.776169 261.226471 214.34375 264.644531 C 215.063339 265.064301 215.782944 265.424011 216.5625 265.84375 C 235.51181 275.738159 262.375336 282.095703 292.058594 282.095703 Z M 178.664063 258.587891 C 200.071976 258.587891 226.815506 251.872864 253.140625 238.140625 C 279.525726 224.468323 300.39386 206.417725 312.626953 188.847656 C 324.860077 171.337524 328.218689 155.026611 322.162109 143.453125 L 315.746094 131.160156 C 313.647278 140.335022 309.09021 149.749023 302.673828 158.923828 C 289.12146 178.292908 266.993408 197.182373 239.289063 211.574219 C 211.584717 226.026062 183.460632 233.283203 159.833984 233.283203 C 148.680283 233.283203 138.34198 231.604401 129.628906 228.066406 L 135.978516 240.298828 C 142.023102 251.932251 157.250153 258.587891 178.664063 258.587891 Z M 292.058594 241.318359 C 321.741821 241.318359 348.607361 234.960815 367.556641 225.066406 C 386.565887 215.171997 397 202.221069 397 189.148438 C 397 176.075806 386.565887 163.122925 367.556641 153.228516 C 357.902069 148.191345 346.148224 144.052765 333.015625 141.234375 C 339.731812 157.2453 334.334717 176.733765 321.501953 195.023438 C 310.168335 211.274292 292.838989 227.045715 271.371094 240.238281 C 278.027344 240.957855 284.982574 241.318359 292.058594 241.318359 Z M 159.839844 222.427734 C 181.24176 222.487732 207.987366 215.713257 234.3125 202.041016 C 260.697601 188.308777 281.565704 170.258179 293.798828 152.748047 C 306.091919 135.237976 309.328644 118.926392 303.332031 107.292969 C 297.275421 95.719482 282.044647 89.009766 260.636719 89.009766 C 239.288773 88.973785 212.543304 95.720886 186.158203 109.453125 C 159.815094 123.185364 138.934814 141.174072 126.677734 158.744141 C 114.414658 176.254272 111.098267 192.565796 117.130859 204.199219 C 123.169441 215.772644 138.437927 222.427734 159.839844 222.427734 Z"/>
</svg>
