<?xml version="1.0" encoding="UTF-8"?>
<!-- Generated by Pixelmator Pro 3.2.3 -->
<svg width="512" height="512" viewBox="0 0 512 512" xmlns="http://www.w3.org/2000/svg" xmlns:xlink="http://www.w3.org/1999/xlink">
    <path id="bookmark-skull" fill="#ffffff" fill-rule="evenodd" stroke="none" d="M 72 485.597656 L 72 81.228516 C 72 50.75354 96.724251 26.027344 127.199219 26.027344 L 384.800781 26.027344 C 415.275757 26.027344 440 50.75354 440 81.228516 L 440 485.597656 L 256 350.615234 L 72 485.597656 Z M 192.248047 307 L 318.748047 307 L 318.748047 275.375 C 318.748047 275.375 366.484436 260.639343 366.185547 251.65625 C 365.693787 236.925842 358.279297 235.842712 358.279297 212.125 C 358.279297 196.3125 382.335541 163.939972 381.996094 133.064453 C 381.996094 85.626892 318.74707 54.001953 255.498047 54.001953 C 192.247955 54.001953 129 85.62793 129 133.064453 C 129 164.689484 152.71875 180.499969 152.71875 212.125 C 152.71875 235.843781 144.8125 235.84375 144.8125 251.65625 C 144.8125 259.561462 170.116837 268.525024 192.248047 275.375 L 192.248047 307 Z M 239.685547 259.5625 C 231.779297 259.5625 231.779297 259.5625 231.779297 243.75 C 231.779297 235.843719 247.591797 204.21875 255.498047 204.21875 C 263.404297 204.21875 279.216797 235.843719 279.216797 243.75 C 279.216797 259.561432 279.216827 259.5625 271.310547 259.5625 L 239.685547 259.5625 Z M 208.060547 212.125 C 190.596146 212.124481 176.4375 197.965454 176.4375 180.5 C 176.4375 163.034546 190.595078 148.875 208.060547 148.875 C 225.526535 148.875 239.685547 163.034546 239.685547 180.5 C 239.685547 197.965454 225.526535 212.125 208.060547 212.125 Z M 302.935547 212.125 C 285.470093 212.125 271.310547 197.965454 271.310547 180.5 C 271.310547 163.034546 285.470093 148.875 302.935547 148.875 C 320.401001 148.875 334.560547 163.034546 334.560547 180.5 C 334.560547 197.965454 320.401001 212.125 302.935547 212.125 Z"/>
</svg>
