<?xml version="1.0" encoding="UTF-8"?>
<!-- Generated by Pixelmator Pro 3.2.3 -->
<svg width="512" height="512" viewBox="0 0 512 512" xmlns="http://www.w3.org/2000/svg" xmlns:xlink="http://www.w3.org/1999/xlink">
    <path id="bookmark-combat" fill="#ffffff" fill-rule="evenodd" stroke="none" d="M 72 485.597656 L 72 81.228516 C 72 50.75354 96.724251 26.027344 127.199219 26.027344 L 384.800781 26.027344 C 415.275757 26.027344 440 50.75354 440 81.228516 L 440 485.597656 L 256 350.615234 L 72 485.597656 Z M 137.169922 327.675781 L 171.976563 316.433594 L 210.490234 272.833984 C 203.258774 261.526825 197.419388 249.19873 192.876953 236.449219 L 144.029297 291.748047 L 137.169922 327.675781 Z M 373.869141 327.675781 L 367.009766 291.748047 L 321.199219 239.886719 C 316.312622 252.391602 310.191315 264.422821 302.808594 275.392578 L 339.0625 316.433594 L 373.869141 327.675781 Z M 257.550781 305.333984 C 303.264679 277.707123 326.380157 209.795349 325.339844 159.179688 C 302.98822 153.27771 280.967377 150.18811 258.767578 150.132813 C 236.522766 150.077881 214.079483 153.071899 190.931641 159.183594 C 189.781128 210.044434 210.323654 276.905823 257.550781 305.333984 Z M 166.945313 158.443359 C 172.394211 146.427734 179.460663 136.241028 187.992188 127.712891 L 191.876953 148.0625 C 205.98671 144.525482 219.900452 142.121246 233.695313 140.822266 L 220.248047 125.601563 L 198.509766 118.582031 C 208.13501 111.328094 219.165695 105.664978 231.472656 101.445313 L 217.871094 86.046875 L 189.546875 111.066406 L 156.976563 74.195313 C 157.983124 70.914185 157.323563 67.206299 154.884766 64.445313 C 152.918243 62.219025 150.195251 61.055634 147.443359 61 C 147.260117 60.996094 147.074677 60.997742 146.892578 61.003906 C 144.6073 61.080383 142.333557 61.921417 140.486328 63.552734 C 136.26442 67.282043 135.866394 73.727325 139.595703 77.949219 C 142.066559 80.746216 145.72757 81.855377 149.146484 81.207031 L 181.669922 118.025391 L 153.34375 143.046875 L 166.945313 158.443359 Z M 344.095703 158.443359 L 357.695313 143.046875 L 329.369141 118.023438 L 361.892578 81.207031 C 365.311493 81.855377 368.974487 80.746216 371.445313 77.949219 C 375.173523 73.727295 374.773499 67.282074 370.552734 63.552734 C 368.705475 61.921997 366.433716 61.077881 364.148438 61.001953 C 363.965118 60.996338 363.781525 60.996063 363.597656 61 C 360.845062 61.056213 358.122711 62.219086 356.15625 64.445313 C 353.716919 67.206299 353.055389 70.915009 354.0625 74.197266 L 321.494141 111.068359 L 293.169922 86.046875 L 279.568359 101.445313 C 291.874237 105.664978 302.904297 111.326691 312.53125 118.580078 L 290.792969 125.601563 L 277.714844 140.404297 C 291.609802 141.451904 305.474548 143.61203 319.392578 146.847656 L 323.046875 127.712891 C 331.578979 136.241028 338.64679 146.427734 344.095703 158.443359 Z"/>
</svg>
