<?xml version="1.0" encoding="UTF-8"?>
<!-- Generated by Pixelmator Pro 3.2.3 -->
<svg width="512" height="512" viewBox="0 0 512 512" xmlns="http://www.w3.org/2000/svg" xmlns:xlink="http://www.w3.org/1999/xlink">
    <path id="bookmark-plain-copy-11" fill="#ffffff" fill-rule="evenodd" stroke="none" d="M 72 485.597656 L 72 81.228516 C 72 50.75354 96.724251 26.027344 127.199219 26.027344 L 384.800781 26.027344 C 415.275757 26.027344 440 50.75354 440 81.228516 L 440 485.597656 L 256 350.615234 L 72 485.597656 Z M 314.296875 291.359375 C 336.658936 291.359375 352.340454 283.528687 361.341797 267.867188 C 370.34314 252.205688 374.84375 229.884216 374.84375 200.902344 C 374.84375 171.920471 370.363312 149.558655 361.402344 133.816406 C 352.360626 118.074158 336.658936 110.203125 314.296875 110.203125 C 291.934814 110.203125 276.253296 118.074158 267.251953 133.816406 C 258.25061 149.558655 253.75 171.920471 253.75 200.902344 C 253.75 229.884216 258.25061 252.205688 267.251953 267.867188 C 276.253296 283.528687 291.934814 291.359375 314.296875 291.359375 Z M 176.482422 287 L 211.841797 287 L 211.841797 111.414063 L 183.142578 111.414063 C 183.142578 112.947937 182.698578 115.289032 181.810547 118.4375 C 180.276688 123.684937 178.016296 127.882782 175.029297 131.03125 C 170.669907 135.632843 165.018921 138.7005 158.076172 140.234375 C 153.716782 141.203125 146.087936 141.929688 135.189453 142.414063 L 135.189453 165.90625 L 176.482422 165.90625 L 176.482422 287 Z M 314.296875 263.265625 C 304.04422 263.265625 297.263031 257.917358 293.953125 247.220703 C 290.643219 236.524048 288.988281 221.084717 288.988281 200.902344 C 288.988281 179.751221 290.643219 164.089905 293.953125 153.917969 C 297.263031 143.746033 304.04422 138.660156 314.296875 138.660156 C 324.54953 138.660156 331.270172 143.746033 334.458984 153.917969 C 337.647797 164.089905 339.242188 179.751221 339.242188 200.902344 C 339.242188 221.084717 337.667999 236.503845 334.519531 247.160156 C 331.290344 257.897186 324.54953 263.265625 314.296875 263.265625 Z"/>
</svg>
