<?xml version="1.0" encoding="UTF-8"?>
<!-- Generated by Pixelmator Pro 3.2.3 -->
<svg width="512" height="512" viewBox="0 0 512 512" xmlns="http://www.w3.org/2000/svg" xmlns:xlink="http://www.w3.org/1999/xlink">
    <path id="bookmark-plain-copy-7" fill="#ffffff" fill-rule="evenodd" stroke="none" d="M 72 485.597656 L 72 81.228516 C 72 50.75354 96.724251 26.027344 127.199219 26.027344 L 384.800781 26.027344 C 415.275757 26.027344 440 50.75354 440 81.228516 L 440 485.597656 L 256 350.615234 L 72 485.597656 Z M 319.902344 291.601563 C 340.488342 291.601563 355.665314 285.345093 365.433594 272.832031 C 375.201874 260.31897 380.085938 245.86853 380.085938 229.480469 C 380.085938 213.011658 375.100952 199.489624 365.130859 188.914063 C 355.160767 178.338501 342.385468 173.050781 326.804688 173.050781 C 319.539032 173.050781 313.08075 174.221344 307.429688 176.5625 C 301.778625 178.903656 296.813812 182.617157 292.535156 187.703125 C 293.503906 174.140564 295.279938 163.888062 297.863281 156.945313 C 302.626312 144.351501 310.618439 138.054688 321.839844 138.054688 C 329.347687 138.054688 334.958313 140.799438 338.671875 146.289063 C 340.851563 149.679718 341.941406 152.78775 341.941406 155.613281 L 376.332031 155.613281 C 375.121094 141.727783 369.671936 130.607422 359.984375 122.251953 C 350.296814 113.896454 337.29953 109.71875 320.992188 109.71875 C 309.690033 109.71875 299.982452 112.302063 291.869141 117.46875 C 283.755829 122.635437 277.196625 129.457031 272.191406 137.933594 C 266.378876 147.863342 262.463562 160.295532 260.445313 175.230469 C 259.315094 183.626343 258.75 194.524658 258.75 207.925781 C 258.75 230.772217 262.826782 249.420532 270.980469 263.871094 C 281.475311 282.358154 297.782471 291.601563 319.902344 291.601563 Z M 191.291016 291.359375 C 213.653091 291.359375 229.33461 283.528687 238.335938 267.867188 C 247.337265 252.205688 251.837891 229.884216 251.837891 200.902344 C 251.837891 171.920471 247.357452 149.558655 238.396484 133.816406 C 229.354782 118.074158 213.653091 110.203125 191.291016 110.203125 C 168.92894 110.203125 153.247421 118.074158 144.246094 133.816406 C 135.244766 149.558655 130.744141 171.920471 130.744141 200.902344 C 130.744141 229.884216 135.244766 252.205688 144.246094 267.867188 C 153.247421 283.528687 168.92894 291.359375 191.291016 291.359375 Z M 320.386719 263.507813 C 312.555939 263.507813 306.097687 260.520844 301.011719 254.546875 C 295.925751 248.572876 293.382813 240.863342 293.382813 231.417969 C 293.382813 219.712219 296.773407 211.235718 303.554688 205.988281 C 308.075531 202.436188 313.282532 200.660156 319.175781 200.660156 C 326.441437 200.660156 332.576813 203.384735 337.582031 208.833984 C 342.58725 214.283234 345.089844 222.134094 345.089844 232.386719 C 345.089844 241.589905 342.889984 249.077454 338.490234 254.849609 C 334.090485 260.621765 328.05603 263.507813 320.386719 263.507813 Z M 191.291016 263.265625 C 181.038376 263.265625 174.257187 257.917358 170.947266 247.220703 C 167.63736 236.524048 165.982422 221.084717 165.982422 200.902344 C 165.982422 179.751221 167.63736 164.089905 170.947266 153.917969 C 174.257187 143.746033 181.038376 138.660156 191.291016 138.660156 C 201.543655 138.660156 208.264313 143.746033 211.453125 153.917969 C 214.641937 164.089905 216.236328 179.751221 216.236328 200.902344 C 216.236328 221.084717 214.662125 236.503845 211.513672 247.160156 C 208.284485 257.897186 201.543655 263.265625 191.291016 263.265625 Z"/>
</svg>
