<?xml version="1.0" encoding="UTF-8"?>
<!-- Generated by Pixelmator Pro 3.2.3 -->
<svg width="512" height="512" viewBox="0 0 512 512" xmlns="http://www.w3.org/2000/svg" xmlns:xlink="http://www.w3.org/1999/xlink">
    <path id="bookmark-normal-copy-6" fill="#ffffff" fill-rule="evenodd" stroke="none" d="M 72 485.597656 L 72 81.228516 C 72 50.75354 96.724251 26.027344 127.199219 26.027344 L 384.800781 26.027344 C 415.275757 26.027344 440 50.75354 440 81.228516 L 440 485.597656 L 256 350.615234 L 72 485.597656 Z M 149.009766 321 C 158.088608 321 165.447266 313.641357 165.447266 304.5625 L 165.447266 103.435547 C 165.447266 94.356689 158.088608 86.998047 149.009766 86.998047 C 139.930939 86.998047 132.572266 94.356689 132.572266 103.435547 L 132.572266 304.5625 C 132.572266 313.641357 139.930939 321 149.009766 321 Z M 328.460938 244.744141 C 342.952087 244.744141 357.946838 240.818176 372.855469 229.632813 C 376.993011 226.528442 379.427734 221.657501 379.427734 216.484375 L 379.427734 118.583984 C 379.427734 112.357178 375.909943 106.665497 370.339844 103.880859 C 364.77301 101.09787 358.105774 101.698303 353.125 105.435547 C 333.902954 119.857666 315.305481 113.979309 286.556641 103.193359 C 258.380676 92.624359 223.317551 79.472168 188.710938 105.435547 C 184.573425 108.539917 182.136719 113.410889 182.136719 118.583984 L 182.136719 216.484375 C 182.136719 222.711182 185.656464 228.402863 191.226563 231.1875 C 196.796677 233.972137 203.462265 233.369232 208.441406 229.632813 C 227.663467 215.210693 246.260925 221.08905 275.009766 231.875 C 291.047699 237.890594 309.314514 244.744141 328.460938 244.744141 Z"/>
</svg>
