<?xml version="1.0" encoding="UTF-8"?>
<!-- Generated by Pixelmator Pro 3.2.3 -->
<svg width="512" height="512" viewBox="0 0 512 512" xmlns="http://www.w3.org/2000/svg" xmlns:xlink="http://www.w3.org/1999/xlink">
    <path id="path3" fill="#ffffff" fill-rule="evenodd" stroke="none" d="M 72 485.597656 L 72 81.228516 C 72 50.75354 96.724251 26.027344 127.199219 26.027344 L 384.800781 26.027344 C 415.275757 26.027344 440 50.75354 440 81.228516 L 440 485.597656 L 256 350.615234 L 72 485.597656 Z M 143.367188 296.919922 C 143.367188 296.919922 368.632813 296.919922 368.632813 296.919922 L 388.960938 176.695313 L 284.832031 176.695313 L 284.832031 242.408203 L 227.167969 242.408203 L 227.167969 176.695313 L 123.039063 176.695313 C 123.039063 176.695313 143.367188 296.919922 143.367188 296.919922 Z M 238.369141 231.207031 L 273.630859 231.207031 L 273.630859 165.744141 L 238.369141 165.744141 L 238.369141 231.207031 Z M 250.400391 214.902344 L 250.400391 191.755859 C 246.690521 189.994415 244.385117 186.629608 244.384766 182.976563 C 244.385971 177.443298 249.585693 172.95929 256 172.958984 C 262.414307 172.95929 267.614075 177.443298 267.615234 182.976563 C 267.610687 186.626038 265.305847 189.986359 261.599609 191.746094 L 261.599609 214.902344 L 250.400391 214.902344 Z M 123 165.496094 L 157.056641 165.496094 L 227.167969 165.496094 L 227.167969 154.542969 L 284.832031 154.542969 L 284.832031 165.496094 L 354.943359 165.496094 L 389 165.496094 L 378.867188 89.080078 L 354.943359 89.080078 L 157.056641 89.080078 L 133.132813 89.080078 L 123 165.496094 Z"/>
</svg>
