<?xml version="1.0" encoding="UTF-8"?>
<!-- Generated by Pixelmator Pro 3.2.3 -->
<svg width="512" height="512" viewBox="0 0 512 512" xmlns="http://www.w3.org/2000/svg" xmlns:xlink="http://www.w3.org/1999/xlink">
    <path id="bookmark-normal-copy-5" fill="#ffffff" fill-rule="evenodd" stroke="none" d="M 72 485.597656 L 72 81.228516 C 72 50.75354 96.724251 26.027344 127.199219 26.027344 L 384.800781 26.027344 C 415.275757 26.027344 440 50.75354 440 81.228516 L 440 485.597656 L 256 350.615234 L 72 485.597656 Z M 169.509766 318 L 342.492188 318 C 352.846527 318 361.238281 309.606293 361.238281 299.251953 C 361.238281 288.897614 352.846527 280.503906 342.492188 280.503906 L 169.509766 280.503906 C 159.155426 280.503906 150.761719 288.897614 150.761719 299.251953 C 150.761719 309.606293 159.155426 318 169.509766 318 Z M 169.509766 260.818359 L 342.492188 260.818359 C 351.803223 260.818359 359.701569 253.987 361.042969 244.773438 L 377.802734 129.675781 C 378.966949 121.681763 374.878906 113.838867 367.658203 110.216797 C 360.434723 106.592865 351.707489 108.004395 345.994141 113.716797 L 309.248047 150.462891 L 273.134766 69.138672 C 270.126709 62.366058 263.41098 58 256 58 C 248.589066 58 241.874313 62.367065 238.867188 69.140625 L 202.751953 150.464844 L 166.007813 113.71875 C 160.29538 108.007263 151.567245 106.593903 144.34375 110.21875 C 137.123077 113.839874 133.034042 121.681763 134.199219 129.675781 L 150.958984 244.773438 C 152.300385 253.987 160.19873 260.818359 169.509766 260.818359 Z"/>
</svg>
