<?xml version="1.0" encoding="UTF-8"?>
<!-- Generated by Pixelmator Pro 3.2.3 -->
<svg width="512" height="512" viewBox="0 0 512 512" xmlns="http://www.w3.org/2000/svg" xmlns:xlink="http://www.w3.org/1999/xlink">
    <path id="bookmark-plain-copy-10" fill="#ffffff" fill-rule="evenodd" stroke="none" d="M 72 485.597656 L 72 81.228516 C 72 50.75354 96.724251 26.027344 127.199219 26.027344 L 384.800781 26.027344 C 415.275757 26.027344 440 50.75354 440 81.228516 L 440 485.597656 L 256 350.615234 L 72 485.597656 Z M 315.421875 292.085938 C 343.031372 292.085938 362.002563 278.563904 372.335938 251.519531 C 377.744812 237.311157 380.449219 219.591248 380.449219 198.359375 C 380.449219 176.481689 377.623718 158.842529 371.972656 145.441406 C 362.042908 121.787659 343.71756 109.960938 316.996094 109.960938 C 299.639252 109.960938 285.531952 115.793549 274.673828 127.458984 C 263.815704 139.12439 258.386719 154.361877 258.386719 173.171875 C 258.386719 191.335999 263.795532 205.241516 274.613281 214.888672 C 285.43103 224.535828 297.822845 229.359375 311.789063 229.359375 C 321.234436 229.359375 329.186157 227.421906 335.644531 223.546875 C 339.196625 221.447906 342.546844 218.420593 345.695313 214.464844 C 345.049469 227.785217 343.475281 237.916626 340.972656 244.859375 C 336.371063 257.453186 328.378967 263.75 316.996094 263.75 C 311.102844 263.75 306.380219 262.135437 302.828125 258.90625 C 299.276031 255.677063 297.096344 251.479187 296.289063 246.3125 L 261.898438 246.3125 C 263.432312 261.247467 269.446564 272.609985 279.941406 280.400391 C 290.436249 288.190796 302.26297 292.085938 315.421875 292.085938 Z M 191.291016 291.359375 C 213.653091 291.359375 229.33461 283.528687 238.335938 267.867188 C 247.337265 252.205688 251.837891 229.884216 251.837891 200.902344 C 251.837891 171.920471 247.357452 149.558655 238.396484 133.816406 C 229.354782 118.074158 213.653091 110.203125 191.291016 110.203125 C 168.92894 110.203125 153.247421 118.074158 144.246094 133.816406 C 135.244766 149.558655 130.744141 171.920471 130.744141 200.902344 C 130.744141 229.884216 135.244766 252.205688 144.246094 267.867188 C 153.247421 283.528687 168.92894 291.359375 191.291016 291.359375 Z M 191.291016 263.265625 C 181.038376 263.265625 174.257187 257.917358 170.947266 247.220703 C 167.63736 236.524048 165.982422 221.084717 165.982422 200.902344 C 165.982422 179.751221 167.63736 164.089905 170.947266 153.917969 C 174.257187 143.746033 181.038376 138.660156 191.291016 138.660156 C 201.543655 138.660156 208.264313 143.746033 211.453125 153.917969 C 214.641937 164.089905 216.236328 179.751221 216.236328 200.902344 C 216.236328 221.084717 214.662125 236.503845 211.513672 247.160156 C 208.284485 257.897186 201.543655 263.265625 191.291016 263.265625 Z M 319.296875 201.265625 C 310.497345 201.265625 303.978546 198.66214 299.740234 193.455078 C 295.501923 188.248016 293.382813 180.437561 293.382813 170.023438 C 293.382813 157.671814 296.692688 148.912781 303.3125 143.746094 C 307.510437 140.436188 312.555969 138.78125 318.449219 138.78125 C 326.522186 138.78125 332.879547 141.687469 337.521484 147.5 C 342.163422 153.312531 344.484375 161.183533 344.484375 171.113281 C 344.484375 183.464905 340.569061 192.143219 332.738281 197.148438 C 328.540344 199.89325 324.059906 201.265625 319.296875 201.265625 Z"/>
</svg>
