<?xml version="1.0" encoding="UTF-8"?>
<!-- Generated by Pixelmator Pro 3.2.3 -->
<svg width="512" height="512" viewBox="0 0 512 512" xmlns="http://www.w3.org/2000/svg" xmlns:xlink="http://www.w3.org/1999/xlink">
    <path id="bookmark-normal-copy-7" fill="#ffffff" fill-rule="evenodd" stroke="none" d="M 72 485.597656 L 72 81.228516 C 72 50.75354 96.724251 26.027344 127.199219 26.027344 L 384.800781 26.027344 C 415.275757 26.027344 440 50.75354 440 81.228516 L 440 485.597656 L 256 350.615234 L 72 485.597656 Z M 255.998047 317 C 258.238373 317.000916 260.478027 316.277008 262.34375 314.826172 L 256 306.667969 C 262.343811 314.825317 262.355469 314.816406 262.355469 314.816406 L 262.375 314.800781 L 262.439453 314.751953 L 262.666016 314.574219 C 262.860291 314.420227 263.139343 314.198456 263.5 313.910156 C 264.219208 313.334595 265.259766 312.493225 266.574219 311.408203 C 269.202057 309.239197 272.931335 306.09024 277.396484 302.121094 C 286.312347 294.196228 298.229767 282.943787 310.181641 269.664063 C 322.103546 256.417389 334.256927 240.936096 343.476563 224.544922 C 352.643555 208.248779 359.335938 190.303345 359.335938 172.330078 C 359.335938 144.923676 348.448914 118.641083 329.070313 99.261719 C 309.690643 79.882507 283.40683 68.994141 256 68.994141 C 228.593597 68.994141 202.309052 79.882507 182.929688 99.261719 C 163.55043 118.641083 152.664063 144.923676 152.664063 172.330078 C 152.664063 190.303345 159.355057 208.248779 168.521484 224.544922 C 177.74176 240.936096 189.896683 256.417389 201.818359 269.664063 C 213.77002 282.943787 225.687988 294.196228 234.603516 302.121094 C 239.068787 306.09024 242.797943 309.239197 245.425781 311.408203 C 246.740234 312.493225 247.780777 313.334595 248.5 313.910156 C 248.860641 314.198456 249.139694 314.420227 249.333984 314.574219 L 249.560547 314.751953 L 249.625 314.800781 L 249.650391 314.820313 C 251.516129 316.271667 253.757721 316.999084 255.998047 317 Z M 249.650391 314.820313 L 256 306.667969 C 249.656189 314.825317 249.650391 314.820313 249.650391 314.820313 Z M 256 203.332031 C 238.878235 203.332031 225 189.451843 225 172.330078 C 225 155.208801 238.878235 141.330078 256 141.330078 C 273.121796 141.330078 287 155.208801 287 172.330078 C 287 189.451843 273.121796 203.332031 256 203.332031 Z"/>
</svg>
