<?xml version="1.0" encoding="UTF-8"?>
<!-- Generated by Pixelmator Pro 3.2.3 -->
<svg width="512" height="512" viewBox="0 0 512 512" xmlns="http://www.w3.org/2000/svg" xmlns:xlink="http://www.w3.org/1999/xlink">
    <path id="bookmark-plain-copy-5" fill="#ffffff" fill-rule="evenodd" stroke="none" d="M 72 485.597656 L 72 81.228516 C 72 50.75354 96.724251 26.027344 127.199219 26.027344 L 384.800781 26.027344 C 415.275757 26.027344 440 50.75354 440 81.228516 L 440 485.597656 L 256 350.615234 L 72 485.597656 Z M 191.291016 291.359375 C 213.653091 291.359375 229.33461 283.528687 238.335938 267.867188 C 247.337265 252.205688 251.837891 229.884216 251.837891 200.902344 C 251.837891 171.920471 247.357452 149.558655 238.396484 133.816406 C 229.354782 118.074158 213.653091 110.203125 191.291016 110.203125 C 168.92894 110.203125 153.247421 118.074158 144.246094 133.816406 C 135.244766 149.558655 130.744141 171.920471 130.744141 200.902344 C 130.744141 229.884216 135.244766 252.205688 144.246094 267.867188 C 153.247421 283.528687 168.92894 291.359375 191.291016 291.359375 Z M 327.046875 287 L 360.832031 287 L 360.832031 249.21875 L 380.691406 249.21875 L 380.691406 222.214844 L 360.832031 222.214844 L 360.832031 112.503906 L 322.082031 112.503906 L 257.539063 219.066406 L 257.539063 249.21875 L 327.046875 249.21875 L 327.046875 287 Z M 191.291016 263.265625 C 181.038376 263.265625 174.257187 257.917358 170.947266 247.220703 C 167.63736 236.524048 165.982422 221.084717 165.982422 200.902344 C 165.982422 179.751221 167.63736 164.089905 170.947266 153.917969 C 174.257187 143.746033 181.038376 138.660156 191.291016 138.660156 C 201.543655 138.660156 208.264313 143.746033 211.453125 153.917969 C 214.641937 164.089905 216.236328 179.751221 216.236328 200.902344 C 216.236328 221.084717 214.662125 236.503845 211.513672 247.160156 C 208.284485 257.897186 201.543655 263.265625 191.291016 263.265625 Z M 283.089844 222.214844 L 327.046875 146.410156 L 327.046875 222.214844 L 283.089844 222.214844 Z"/>
</svg>
