<?xml version="1.0" encoding="UTF-8"?>
<!-- Generated by Pixelmator Pro 3.2.3 -->
<svg width="512" height="512" viewBox="0 0 512 512" xmlns="http://www.w3.org/2000/svg" xmlns:xlink="http://www.w3.org/1999/xlink">
    <path id="bookmark-plain-copy-6" fill="#ffffff" fill-rule="evenodd" stroke="none" d="M 72 485.597656 L 72 81.228516 C 72 50.75354 96.724251 26.027344 127.199219 26.027344 L 384.800781 26.027344 C 415.275757 26.027344 440 50.75354 440 81.228516 L 440 485.597656 L 256 350.615234 L 72 485.597656 Z M 316.632813 291.601563 C 337.38028 291.601563 352.960876 285.22403 363.375 272.46875 C 373.789124 259.71347 378.996094 245.222717 378.996094 228.996094 C 378.996094 210.347595 373.58728 196.139343 362.769531 186.371094 C 351.951782 176.602844 339.277405 171.71875 324.746094 171.71875 C 317.561157 171.71875 311.466156 172.647125 306.460938 174.503906 C 303.473938 175.634125 299.316437 177.934875 293.988281 181.40625 L 300.285156 143.019531 L 372.09375 143.019531 L 372.09375 113.714844 L 275.339844 113.714844 L 262.988281 210.710938 L 293.988281 212.164063 C 296.733093 206.916626 300.809875 203.324219 306.21875 201.386719 C 309.286469 200.337219 312.91925 199.8125 317.117188 199.8125 C 325.997437 199.8125 332.536438 202.90036 336.734375 209.076172 C 340.932312 215.251984 343.03125 222.820313 343.03125 231.78125 C 343.03125 240.903687 340.791046 248.471985 336.310547 254.486328 C 331.830048 260.500671 325.311249 263.507813 316.753906 263.507813 C 309.326782 263.507813 303.675812 261.469421 299.800781 257.392578 C 295.925751 253.315735 293.302094 247.523468 291.929688 240.015625 L 257.539063 240.015625 C 258.75 256.484436 264.723907 269.199188 275.460938 278.160156 C 286.197968 287.121124 299.921814 291.601563 316.632813 291.601563 Z M 191.291016 291.359375 C 213.653091 291.359375 229.33461 283.528687 238.335938 267.867188 C 247.337265 252.205688 251.837891 229.884216 251.837891 200.902344 C 251.837891 171.920471 247.357452 149.558655 238.396484 133.816406 C 229.354782 118.074158 213.653091 110.203125 191.291016 110.203125 C 168.92894 110.203125 153.247421 118.074158 144.246094 133.816406 C 135.244766 149.558655 130.744141 171.920471 130.744141 200.902344 C 130.744141 229.884216 135.244766 252.205688 144.246094 267.867188 C 153.247421 283.528687 168.92894 291.359375 191.291016 291.359375 Z M 191.291016 263.265625 C 181.038376 263.265625 174.257187 257.917358 170.947266 247.220703 C 167.63736 236.524048 165.982422 221.084717 165.982422 200.902344 C 165.982422 179.751221 167.63736 164.089905 170.947266 153.917969 C 174.257187 143.746033 181.038376 138.660156 191.291016 138.660156 C 201.543655 138.660156 208.264313 143.746033 211.453125 153.917969 C 214.641937 164.089905 216.236328 179.751221 216.236328 200.902344 C 216.236328 221.084717 214.662125 236.503845 211.513672 247.160156 C 208.284485 257.897186 201.543655 263.265625 191.291016 263.265625 Z"/>
</svg>
