<?xml version="1.0" encoding="UTF-8"?>
<!-- Generated by Pixelmator Pro 3.2.3 -->
<svg width="512" height="512" viewBox="0 0 512 512" xmlns="http://www.w3.org/2000/svg" xmlns:xlink="http://www.w3.org/1999/xlink">
    <path id="bookmark-normal-copy-4" fill="#ffffff" fill-rule="evenodd" stroke="none" d="M 72 485.597656 L 72 81.228516 C 72 50.75354 96.724251 26.027344 127.199219 26.027344 L 384.800781 26.027344 C 415.275757 26.027344 440 50.75354 440 81.228516 L 440 485.597656 L 256 350.615234 L 72 485.597656 Z M 256.283203 304 C 307.50827 304 348.1875 268.982849 348.1875 226.681641 C 348.1875 213.451416 344.233215 200.853638 337.236328 189.923828 L 175.314453 189.923828 C 168.319946 200.852234 164.376953 213.452881 164.376953 226.681641 C 164.376953 268.982849 205.05719 304 256.283203 304 Z M 233.212891 285.539063 L 248.591797 238.5625 C 241.637512 235.620575 236.847656 228.690857 236.847656 220.669922 C 236.847656 209.975647 245.451263 201.384766 256.146484 201.384766 L 256.146484 201.382813 C 266.841705 201.382813 275.714844 209.972778 275.714844 220.667969 C 275.714844 228.68988 270.641296 235.618164 263.6875 238.560547 L 279.351563 285.539063 L 233.212891 285.539063 Z M 186.085938 180.976563 L 209.828125 180.976563 L 209.828125 147.898438 C 209.828125 122.209778 230.639526 101.371094 256.28125 101.371094 C 281.924408 101.371094 302.734375 122.791962 302.734375 147.898438 L 302.734375 180.976563 L 326.478516 180.976563 L 326.478516 146.373047 C 326.478516 108.620911 295.015778 76.28125 256.28125 76.28125 C 217.479706 76.28125 186.085938 107.631836 186.085938 146.373047 L 186.085938 180.976563 Z"/>
</svg>
