<?xml version="1.0" encoding="UTF-8"?>
<!-- Generated by Pixelmator Pro 3.2.3 -->
<svg width="512" height="512" viewBox="0 0 512 512" xmlns="http://www.w3.org/2000/svg" xmlns:xlink="http://www.w3.org/1999/xlink">
    <path id="bookmark-plain-copy-9" fill="#ffffff" fill-rule="evenodd" stroke="none" d="M 72 485.597656 L 72 81.228516 C 72 50.75354 96.724251 26.027344 127.199219 26.027344 L 384.800781 26.027344 C 415.275757 26.027344 440 50.75354 440 81.228516 L 440 485.597656 L 256 350.615234 L 72 485.597656 Z M 317.238281 291.601563 C 336.85553 291.601563 352.133423 286.414764 363.072266 276.041016 C 374.011108 265.667267 379.480469 253.093811 379.480469 238.320313 C 379.480469 228.471313 377.300812 219.550781 372.941406 211.558594 C 368.582001 203.566406 362.083374 197.148468 353.445313 192.304688 C 361.921906 187.460907 367.431641 181.74939 369.974609 175.169922 C 372.517578 168.590454 373.789063 162.434937 373.789063 156.703125 C 373.789063 143.947876 368.985718 133.069702 359.378906 124.068359 C 349.772095 115.067017 336.209686 110.566406 318.691406 110.566406 C 301.173126 110.566406 287.610718 115.067017 278.003906 124.068359 C 268.397095 133.069702 263.59375 143.947876 263.59375 156.703125 C 263.59375 162.434937 264.865234 168.590454 267.408203 175.169922 C 269.951172 181.74939 275.460907 187.864563 283.9375 193.515625 C 275.299438 197.552094 268.740265 203.566406 264.259766 211.558594 C 259.779266 219.550781 257.539063 228.471313 257.539063 238.320313 C 257.539063 253.093811 262.584595 265.647095 272.675781 275.980469 C 282.766968 286.394562 297.621033 291.601563 317.238281 291.601563 Z M 191.291016 291.359375 C 213.653091 291.359375 229.33461 283.528687 238.335938 267.867188 C 247.337265 252.205688 251.837891 229.884216 251.837891 200.902344 C 251.837891 171.920471 247.357452 149.558655 238.396484 133.816406 C 229.354782 118.074158 213.653091 110.203125 191.291016 110.203125 C 168.92894 110.203125 153.247421 118.074158 144.246094 133.816406 C 135.244766 149.558655 130.744141 171.920471 130.744141 200.902344 C 130.744141 229.884216 135.244766 252.205688 144.246094 267.867188 C 153.247421 283.528687 168.92894 291.359375 191.291016 291.359375 Z M 191.291016 263.265625 C 181.038376 263.265625 174.257187 257.917358 170.947266 247.220703 C 167.63736 236.524048 165.982422 221.084717 165.982422 200.902344 C 165.982422 179.751221 167.63736 164.089905 170.947266 153.917969 C 174.257187 143.746033 181.038376 138.660156 191.291016 138.660156 C 201.543655 138.660156 208.264313 143.746033 211.453125 153.917969 C 214.641937 164.089905 216.236328 179.751221 216.236328 200.902344 C 216.236328 221.084717 214.662125 236.503845 211.513672 247.160156 C 208.284485 257.897186 201.543655 263.265625 191.291016 263.265625 Z M 318.691406 263.265625 C 310.779907 263.265625 304.584015 260.884125 300.103516 256.121094 C 295.623016 251.358063 293.382813 244.657593 293.382813 236.019531 C 293.382813 227.058594 295.663391 220.257172 300.224609 215.615234 C 304.785828 210.973297 310.941376 208.652344 318.691406 208.652344 C 326.441437 208.652344 332.596985 210.973297 337.158203 215.615234 C 341.719421 220.257172 344 227.058594 344 236.019531 C 344 244.657593 341.759796 251.358063 337.279297 256.121094 C 332.798798 260.884125 326.602905 263.265625 318.691406 263.265625 Z M 318.691406 182.253906 C 311.748657 182.253906 306.339874 180.235687 302.464844 176.199219 C 298.509094 172.16275 296.53125 166.95575 296.53125 160.578125 C 296.53125 153.635376 298.488922 148.20639 302.404297 144.291016 C 306.319672 140.375641 311.748657 138.417969 318.691406 138.417969 C 325.714874 138.417969 331.14386 140.375641 334.978516 144.291016 C 338.813171 148.20639 340.730469 153.635376 340.730469 160.578125 C 340.730469 166.95575 338.813171 172.16275 334.978516 176.199219 C 331.14386 180.235687 325.714874 182.253906 318.691406 182.253906 Z"/>
</svg>
