<?xml version="1.0" encoding="UTF-8"?>
<!-- Generated by Pixelmator Pro 3.2.3 -->
<svg width="512" height="512" viewBox="0 0 512 512" xmlns="http://www.w3.org/2000/svg" xmlns:xlink="http://www.w3.org/1999/xlink">
    <path id="bookmark-plain-copy-2" fill="#ffffff" fill-rule="evenodd" stroke="none" d="M 72 485.597656 L 72 81.228516 C 72 50.75354 96.724251 26.027344 127.199219 26.027344 L 384.800781 26.027344 C 415.275757 26.027344 440 50.75354 440 81.228516 L 440 485.597656 L 256 350.615234 L 72 485.597656 Z M 191.291016 291.359375 C 213.653091 291.359375 229.33461 283.528687 238.335938 267.867188 C 247.337265 252.205688 251.837891 229.884216 251.837891 200.902344 C 251.837891 171.920471 247.357452 149.558655 238.396484 133.816406 C 229.354782 118.074158 213.653091 110.203125 191.291016 110.203125 C 168.92894 110.203125 153.247421 118.074158 144.246094 133.816406 C 135.244766 149.558655 130.744141 171.920471 130.744141 200.902344 C 130.744141 229.884216 135.244766 252.205688 144.246094 267.867188 C 153.247421 283.528687 168.92894 291.359375 191.291016 291.359375 Z M 258.75 287 L 378.996094 287 L 378.996094 256.605469 L 302.34375 256.605469 C 304.523438 252.972626 307.207672 249.783875 310.396484 247.039063 C 313.585297 244.29425 319.498657 239.854187 328.136719 233.71875 L 341.941406 223.910156 C 353.566467 215.675781 361.921844 208.208374 367.007813 201.507813 C 374.757843 191.416626 378.632813 179.872437 378.632813 166.875 C 378.632813 149.921814 373.14328 136.298889 362.164063 126.005859 C 351.184845 115.71283 336.41153 110.566406 317.84375 110.566406 C 294.351471 110.566406 278.003967 119.325439 268.800781 136.84375 C 263.957001 146.046936 261.252594 158.115845 260.6875 173.050781 L 294.230469 173.050781 C 294.634125 163.201782 295.925781 156.016937 298.105469 151.496094 C 301.89975 143.665344 309.04422 139.75 319.539063 139.75 C 327.208374 139.75 333.101532 142.212219 337.21875 147.136719 C 341.335968 152.061218 343.394531 158.236938 343.394531 165.664063 C 343.394531 174.786499 339.802124 183.182251 332.617188 190.851563 C 327.934875 195.776062 317.641968 203.929626 301.738281 215.3125 C 283.412689 228.390686 271.787781 240.782532 266.863281 252.488281 C 261.777313 262.902374 259.072906 274.406189 258.75 287 Z M 191.291016 263.265625 C 181.038376 263.265625 174.257187 257.917358 170.947266 247.220703 C 167.63736 236.524048 165.982422 221.084717 165.982422 200.902344 C 165.982422 179.751221 167.63736 164.089905 170.947266 153.917969 C 174.257187 143.746033 181.038376 138.660156 191.291016 138.660156 C 201.543655 138.660156 208.264313 143.746033 211.453125 153.917969 C 214.641937 164.089905 216.236328 179.751221 216.236328 200.902344 C 216.236328 221.084717 214.662125 236.503845 211.513672 247.160156 C 208.284485 257.897186 201.543655 263.265625 191.291016 263.265625 Z"/>
</svg>
