<?xml version="1.0" encoding="UTF-8"?>
<!-- Generated by Pixelmator Pro 3.2.3 -->
<svg width="512" height="512" viewBox="0 0 512 512" xmlns="http://www.w3.org/2000/svg" xmlns:xlink="http://www.w3.org/1999/xlink">
    <path id="bookmark-normal-copy-3" fill="#ffffff" fill-rule="evenodd" stroke="none" d="M 72 485.597656 L 72 81.228516 C 72 50.75354 96.724251 26.027344 127.199219 26.027344 L 384.800781 26.027344 C 415.275757 26.027344 440 50.75354 440 81.228516 L 440 485.597656 L 256 350.615234 L 72 485.597656 Z M 390.398438 304 C 392.735718 303.999908 395.016205 303.215027 396.888672 301.722656 C 399.376495 299.737701 400.802734 296.770691 400.802734 293.585938 L 400.802734 128.025391 C 400.803711 122.282227 396.129852 117.609375 390.386719 117.609375 L 382.833984 117.609375 L 382.833984 248.214844 C 382.833984 262.840729 370.917999 274.768402 356.269531 274.804688 C 335.701569 274.853699 301.78595 278.875122 277.767578 301.607422 C 319.307373 291.436646 363.098267 298.049072 388.054688 303.736328 C 388.83371 303.913757 389.619354 304.000031 390.398438 304 Z M 120.080078 303.998047 C 120.85955 303.998047 121.645523 303.910339 122.425781 303.732422 C 147.382233 298.04422 191.17305 291.432739 232.710938 301.603516 C 208.693542 278.872162 174.780899 274.851746 154.212891 274.802734 C 139.56543 274.767456 127.646484 262.840729 127.646484 248.214844 L 127.646484 117.609375 L 120.09375 117.609375 C 114.351608 117.609375 109.677734 122.282227 109.677734 128.025391 L 109.677734 293.582031 C 109.677734 296.767761 111.103996 299.733795 113.591797 301.71875 C 115.462799 303.210388 117.741653 303.998016 120.080078 303.998047 Z M 247.154297 293.072266 L 247.154297 129.589844 C 247.154297 127.64801 246.658768 125.824005 245.722656 124.314453 C 222.719803 87.269928 178.514542 81.640839 154.210938 81.583984 C 154.203094 81.583984 154.195343 81.583984 154.1875 81.583984 C 151.434052 81.583984 148.844208 82.656799 146.888672 84.607422 C 144.911575 86.579651 143.822266 89.20639 143.822266 92.001953 L 143.822266 248.214844 C 143.822266 253.943237 148.500015 258.61615 154.251953 258.630859 C 178.500671 258.68869 219.127808 263.743073 247.154297 293.072266 Z M 263.328125 293.070313 C 291.354614 263.741119 331.981781 258.686737 356.230469 258.628906 C 361.981445 258.614197 366.660156 253.942261 366.660156 248.214844 L 366.660156 92.001953 C 366.660156 89.20639 365.570862 86.57962 363.59375 84.607422 C 361.638214 82.656799 359.047363 81.583984 356.296875 81.583984 C 356.288086 81.583984 356.279327 81.583984 356.271484 81.583984 C 331.968872 81.641846 287.763611 87.269958 264.759766 124.314453 C 263.823669 125.824005 263.328125 127.64801 263.328125 129.589844 L 263.328125 293.070313 Z"/>
</svg>
