<?xml version="1.0" encoding="UTF-8"?>
<!-- Generated by Pixelmator Pro 3.2.3 -->
<svg width="512" height="512" viewBox="0 0 512 512" xmlns="http://www.w3.org/2000/svg" xmlns:xlink="http://www.w3.org/1999/xlink">
    <path id="bookmark-plain-copy-4" fill="#ffffff" fill-rule="evenodd" stroke="none" d="M 72 485.597656 L 72 81.228516 C 72 50.75354 96.724251 26.027344 127.199219 26.027344 L 384.800781 26.027344 C 415.275757 26.027344 440 50.75354 440 81.228516 L 440 485.597656 L 256 350.615234 L 72 485.597656 Z M 191.291016 291.359375 C 213.653091 291.359375 229.33461 283.528687 238.335938 267.867188 C 247.337265 252.205688 251.837891 229.884216 251.837891 200.902344 C 251.837891 171.920471 247.357452 149.558655 238.396484 133.816406 C 229.354782 118.074158 213.653091 110.203125 191.291016 110.203125 C 168.92894 110.203125 153.247421 118.074158 144.246094 133.816406 C 135.244766 149.558655 130.744141 171.920471 130.744141 200.902344 C 130.744141 229.884216 135.244766 252.205688 144.246094 267.867188 C 153.247421 283.528687 168.92894 291.359375 191.291016 291.359375 Z M 317.84375 291.359375 C 338.026123 291.359375 353.263611 285.728577 363.556641 274.466797 C 373.84967 263.205017 378.996094 250.147217 378.996094 235.292969 C 378.996094 221.165283 374.596405 210.02478 365.796875 201.871094 C 359.903625 196.462219 355.382843 193.757813 352.234375 193.757813 C 356.432312 192.143219 360.468719 189.115906 364.34375 184.675781 C 370.479187 177.571594 373.546875 168.852905 373.546875 158.519531 C 373.546875 143.907471 368.400452 132.26239 358.107422 123.583984 C 347.814392 114.905548 334.272186 110.566406 317.480469 110.566406 C 308.438751 110.566406 300.809937 111.65625 294.59375 113.835938 C 288.377563 116.015625 283.009125 119.164032 278.488281 123.28125 C 272.433563 129.093781 267.9935 135.430969 265.167969 142.292969 C 262.503906 150.123718 261.010406 158.398438 260.6875 167.117188 L 292.898438 167.117188 C 292.736969 158.479126 294.593719 151.576843 298.46875 146.410156 C 302.263031 141.243469 308.236938 138.660156 316.390625 138.660156 C 323.494812 138.660156 329.004547 140.759094 332.919922 144.957031 C 336.835297 149.154968 338.792969 154.604126 338.792969 161.304688 C 338.792969 171.638062 334.958374 178.499969 327.289063 181.890625 C 322.848938 183.908875 315.01828 184.998688 303.796875 185.160156 L 303.796875 209.863281 C 315.260468 209.863281 323.656219 210.953125 328.984375 213.132813 C 338.348999 217.007843 343.03125 224.717407 343.03125 236.261719 C 343.03125 244.980469 340.508484 251.660797 335.462891 256.302734 C 330.417297 260.944672 324.503937 263.265625 317.722656 263.265625 C 306.66272 263.265625 299.033875 259.027374 294.835938 250.550781 C 292.5755 245.949188 291.445313 240.136749 291.445313 233.113281 L 257.539063 233.113281 C 258.104156 247.079468 260.929657 258.38147 266.015625 267.019531 C 275.703186 283.246155 292.979065 291.359375 317.84375 291.359375 Z M 191.291016 263.265625 C 181.038376 263.265625 174.257187 257.917358 170.947266 247.220703 C 167.63736 236.524048 165.982422 221.084717 165.982422 200.902344 C 165.982422 179.751221 167.63736 164.089905 170.947266 153.917969 C 174.257187 143.746033 181.038376 138.660156 191.291016 138.660156 C 201.543655 138.660156 208.264313 143.746033 211.453125 153.917969 C 214.641937 164.089905 216.236328 179.751221 216.236328 200.902344 C 216.236328 221.084717 214.662125 236.503845 211.513672 247.160156 C 208.284485 257.897186 201.543655 263.265625 191.291016 263.265625 Z"/>
</svg>
