<?xml version="1.0" encoding="UTF-8"?>
<!-- Generated by Pixelmator Pro 3.2.3 -->
<svg width="512" height="512" viewBox="0 0 512 512" xmlns="http://www.w3.org/2000/svg" xmlns:xlink="http://www.w3.org/1999/xlink">
    <path id="bookmark-plain-copy" fill="#ffffff" fill-rule="evenodd" stroke="none" d="M 72 485.597656 L 72 81.228516 C 72 50.75354 96.724251 26.027344 127.199219 26.027344 L 384.800781 26.027344 C 415.275757 26.027344 440 50.75354 440 81.228516 L 440 485.597656 L 256 350.615234 L 72 485.597656 Z M 191.291016 291.359375 C 213.653091 291.359375 229.33461 283.528687 238.335938 267.867188 C 247.337265 252.205688 251.837891 229.884216 251.837891 200.902344 C 251.837891 171.920471 247.357452 149.558655 238.396484 133.816406 C 229.354782 118.074158 213.653091 110.203125 191.291016 110.203125 C 168.92894 110.203125 153.247421 118.074158 144.246094 133.816406 C 135.244766 149.558655 130.744141 171.920471 130.744141 200.902344 C 130.744141 229.884216 135.244766 252.205688 144.246094 267.867188 C 153.247421 283.528687 168.92894 291.359375 191.291016 291.359375 Z M 319.296875 291.359375 C 341.658936 291.359375 357.340454 283.528687 366.341797 267.867188 C 375.34314 252.205688 379.84375 229.884216 379.84375 200.902344 C 379.84375 171.920471 375.363312 149.558655 366.402344 133.816406 C 357.360626 118.074158 341.658936 110.203125 319.296875 110.203125 C 296.934814 110.203125 281.253296 118.074158 272.251953 133.816406 C 263.25061 149.558655 258.75 171.920471 258.75 200.902344 C 258.75 229.884216 263.25061 252.205688 272.251953 267.867188 C 281.253296 283.528687 296.934814 291.359375 319.296875 291.359375 Z M 191.291016 263.265625 C 181.038376 263.265625 174.257187 257.917358 170.947266 247.220703 C 167.63736 236.524048 165.982422 221.084717 165.982422 200.902344 C 165.982422 179.751221 167.63736 164.089905 170.947266 153.917969 C 174.257187 143.746033 181.038376 138.660156 191.291016 138.660156 C 201.543655 138.660156 208.264313 143.746033 211.453125 153.917969 C 214.641937 164.089905 216.236328 179.751221 216.236328 200.902344 C 216.236328 221.084717 214.662125 236.503845 211.513672 247.160156 C 208.284485 257.897186 201.543655 263.265625 191.291016 263.265625 Z M 319.296875 263.265625 C 309.04422 263.265625 302.263031 257.917358 298.953125 247.220703 C 295.643219 236.524048 293.988281 221.084717 293.988281 200.902344 C 293.988281 179.751221 295.643219 164.089905 298.953125 153.917969 C 302.263031 143.746033 309.04422 138.660156 319.296875 138.660156 C 329.54953 138.660156 336.270172 143.746033 339.458984 153.917969 C 342.647797 164.089905 344.242188 179.751221 344.242188 200.902344 C 344.242188 221.084717 342.667999 236.503845 339.519531 247.160156 C 336.290344 257.897186 329.54953 263.265625 319.296875 263.265625 Z"/>
</svg>
