<?xml version="1.0" encoding="UTF-8"?>
<!-- Generated by Pixelmator Pro 3.4.3 -->
<svg width="472" height="472" viewBox="0 0 472 472" xmlns="http://www.w3.org/2000/svg">
    <path id="circle-20" fill="#ffffff" fill-rule="evenodd" stroke="none" d="M 236 472 C 105.661057 472 0 366.338928 0 236 C 0 105.661041 105.661057 0 236 0 C 366.338959 0 472 105.661041 472 236 C 472 366.338928 366.338959 472 236 472 Z M 321.958984 329.650391 C 334.7453 329.650391 345.793365 327.845032 355.101563 324.234375 C 364.409729 320.623718 372.127716 315.63739 378.255859 309.277344 C 384.384003 302.917297 389.047913 295.515259 392.25 287.068359 C 395.452118 278.62146 397.308502 269.53894 397.816406 259.822266 C 398.103516 255.052246 398.272919 249.587051 398.328125 243.425781 C 398.383331 237.264496 398.383331 231.058197 398.328125 224.808594 C 398.272919 218.55896 398.103516 212.962311 397.816406 208.015625 C 397.308502 198.298889 395.398468 189.243256 392.085938 180.851563 C 388.773438 172.459839 383.996399 165.140228 377.757813 158.890625 C 371.519257 152.641022 363.774445 147.739014 354.521484 144.183594 C 345.268524 140.628143 334.414032 138.849609 321.958984 138.849609 C 309.503906 138.849609 298.651398 140.628143 289.398438 144.183594 C 280.145477 147.739014 272.398743 152.641022 266.160156 158.890625 C 259.9216 165.140228 255.146515 172.459839 251.833984 180.851563 C 248.521484 189.243256 246.61145 198.298889 246.103516 208.015625 C 245.88269 212.962311 245.72702 218.55896 245.638672 224.808594 C 245.550354 231.058197 245.550354 237.264496 245.638672 243.425781 C 245.72702 249.587051 245.88269 255.052246 246.103516 259.822266 C 246.677704 269.53894 248.549774 278.62146 251.71875 287.068359 C 254.887726 295.515259 259.535889 302.917297 265.664063 309.277344 C 271.792206 315.63739 279.510193 320.623718 288.818359 324.234375 C 298.126526 327.845032 309.172668 329.650391 321.958984 329.650391 Z M 88.03125 327 L 224.173828 327 C 226.117172 327 227.728928 326.358948 229.009766 325.078125 C 230.290604 323.797302 230.931641 322.218872 230.931641 320.341797 L 230.931641 293.675781 C 230.931641 291.732422 230.290604 290.120667 229.009766 288.839844 C 227.728928 287.559021 226.117172 286.917969 224.173828 286.917969 L 155.9375 286.917969 L 180.349609 262.439453 C 189.977966 255.21817 198.265701 248.183762 205.210938 241.337891 C 212.156174 234.492035 217.516708 227.332672 221.292969 219.857422 C 225.069244 212.382172 226.957031 204.250153 226.957031 195.460938 C 226.957031 184.110046 224.218872 174.150391 218.742188 165.582031 C 213.265488 157.013641 205.28717 150.306305 194.808594 145.458984 C 184.330017 140.611664 171.549774 138.1875 156.466797 138.1875 C 145.62384 138.1875 135.808731 139.799255 127.019531 143.023438 C 118.230324 146.24762 110.692894 150.70871 104.410156 156.40625 C 98.127426 162.10379 93.258797 168.673096 89.802734 176.115234 C 86.34668 183.557343 84.530182 191.551361 84.353516 200.097656 C 84.353516 201.621429 84.89447 202.92572 85.976563 204.007813 C 87.058647 205.089905 88.427727 205.630859 90.083984 205.630859 L 123.208984 205.630859 C 125.152328 205.630859 126.968826 205.199127 128.658203 204.337891 C 130.347595 203.476624 131.500809 201.876007 132.119141 199.535156 C 132.8479 195.80304 134.118835 192.196869 135.929688 188.71875 C 137.740524 185.240601 140.345245 182.38208 143.746094 180.140625 C 147.146942 177.899139 151.443192 176.777344 156.632813 176.777344 C 164.207428 176.777344 169.545715 178.75412 172.648438 182.707031 C 175.75116 186.659973 177.302734 191.628693 177.302734 197.613281 C 177.302734 202.869141 175.094421 208.41217 170.677734 214.242188 C 166.261047 220.072235 159.498077 226.719391 150.388672 234.183594 C 141.279266 241.647797 129.667953 250.734863 115.556641 261.445313 L 87.998047 288.507813 C 84.972618 290.804504 83.111641 293.235199 82.416016 295.796875 C 81.720383 298.358551 81.373047 300.301941 81.373047 301.626953 L 81.373047 320.341797 C 81.373047 322.218872 82.012131 323.797302 83.292969 325.078125 C 84.573814 326.358948 86.15416 327 88.03125 327 Z M 321.958984 291.224609 C 313.037262 291.224609 306.472504 288.248352 302.265625 282.296875 C 298.058716 276.345398 295.779114 268.413483 295.425781 258.498047 C 295.315369 253.374695 295.217255 247.98082 295.128906 242.316406 C 295.040588 236.652008 295.040588 230.959869 295.128906 225.240234 C 295.217255 219.52063 295.315369 214.275879 295.425781 209.505859 C 295.779114 199.943726 298.005066 192.125671 302.101563 186.052734 C 306.198029 179.979767 312.816437 176.887756 321.958984 176.777344 C 331.167786 176.887756 337.832611 179.979767 341.951172 186.052734 C 346.069733 192.125671 348.249268 199.943726 348.492188 209.505859 C 348.779266 214.275879 348.950623 219.52063 349.005859 225.240234 C 349.061066 230.959869 349.061066 236.652008 349.005859 242.316406 C 348.950623 247.98082 348.779266 253.374695 348.492188 258.498047 C 348.249268 268.413483 346.040955 276.345398 341.867188 282.296875 C 337.69342 288.248352 331.057343 291.224609 321.958984 291.224609 Z"/>
</svg>
