<?xml version="1.0" encoding="UTF-8"?>
<!-- Generated by Pixelmator Pro 3.4.3 -->
<svg width="472" height="472" viewBox="0 0 472 472" xmlns="http://www.w3.org/2000/svg">
    <path id="circle-06" fill="#ffffff" fill-rule="evenodd" stroke="none" d="M 236 472 C 105.661057 472 0 366.338928 0 236 C 0 105.661041 105.661057 0 236 0 C 366.338959 0 472 105.661041 472 236 C 472 366.338928 366.338959 472 236 472 Z M 152.210938 331.650391 C 164.997223 331.650391 176.043411 329.845032 185.351563 326.234375 C 194.659714 322.623718 202.377701 317.63739 208.505859 311.277344 C 214.634018 304.917297 219.29985 297.515259 222.501953 289.068359 C 225.704056 280.62146 227.558487 271.538971 228.066406 261.822266 C 228.353485 257.052246 228.524872 251.587051 228.580078 245.425781 C 228.6353 239.264496 228.6353 233.058197 228.580078 226.808594 C 228.524872 220.55896 228.353485 214.962311 228.066406 210.015625 C 227.558487 200.298889 225.648453 191.243256 222.335938 182.851563 C 219.023407 174.459839 214.248337 167.140228 208.009766 160.890625 C 201.771194 154.641022 194.024429 149.739014 184.771484 146.183594 C 175.518524 142.628143 164.665985 140.849609 152.210938 140.849609 C 139.75589 140.849609 128.901382 142.628143 119.648438 146.183594 C 110.39547 149.739014 102.64872 154.641022 96.410156 160.890625 C 90.171593 167.140228 85.3965 174.459839 82.083984 182.851563 C 78.771469 191.243256 76.861435 200.298889 76.353516 210.015625 C 76.132683 214.962311 75.978958 220.55896 75.890625 226.808594 C 75.802292 233.058197 75.802292 239.264496 75.890625 245.425781 C 75.978958 251.587051 76.132683 257.052246 76.353516 261.822266 C 76.927681 271.538971 78.799774 280.62146 81.96875 289.068359 C 85.137726 297.515259 89.785912 304.917297 95.914063 311.277344 C 102.042213 317.63739 109.760201 322.623718 119.068359 326.234375 C 128.376511 329.845032 139.424637 331.650391 152.210938 331.650391 Z M 319.425781 331.650391 C 335.10498 331.650391 348.735596 328.61853 360.318359 322.556641 C 371.901123 316.494751 380.865875 308.362671 387.214844 298.160156 C 393.563843 287.957642 396.738281 276.728943 396.738281 264.472656 C 396.738281 254.976807 394.845917 246.392715 391.058594 238.71875 C 387.271301 231.044785 382.186798 224.457764 375.804688 218.958984 C 369.422577 213.460205 362.321442 209.126007 354.503906 205.957031 C 346.686371 202.788055 338.803558 201.038269 330.853516 200.707031 C 329.683105 200.707031 328.358521 200.773743 326.878906 200.90625 C 325.399323 201.038727 324.083893 201.236969 322.935547 201.501953 L 358.710938 152.775391 C 359.06427 152.422058 359.346832 151.936676 359.556641 151.318359 C 359.766418 150.700012 359.871094 150.036774 359.871094 149.330078 C 359.871094 147.740082 359.330139 146.371002 358.248047 145.222656 C 357.165955 144.07431 355.830231 143.5 354.240234 143.5 L 319.060547 143.5 C 316.432617 143.5 314.378021 144.1633 312.898438 145.488281 C 311.418823 146.813293 310.294403 147.91745 309.521484 148.800781 L 262.947266 211.605469 C 261.246857 213.835876 259.165436 216.861206 256.703125 220.681641 C 254.240814 224.502075 251.767609 228.829742 249.283203 233.666016 C 246.798828 238.502274 244.733093 243.620132 243.087891 249.019531 C 241.442657 254.41893 240.621094 259.846161 240.621094 265.300781 C 240.621094 278.329956 243.933563 289.834717 250.558594 299.816406 C 257.183624 309.798096 266.397583 317.598511 278.201172 323.21875 C 290.004791 328.838989 303.746613 331.650391 319.425781 331.650391 Z M 318.927734 293.390625 C 313.716034 293.390625 308.896484 292.313293 304.46875 290.160156 C 300.041016 288.007019 296.459045 284.821472 293.720703 280.603516 C 290.982361 276.38559 289.613281 271.229797 289.613281 265.134766 C 289.613281 259.039734 290.953583 253.899658 293.636719 249.714844 C 296.319855 245.530029 299.903778 242.362122 304.386719 240.208984 C 308.869659 238.055847 313.716034 236.978516 318.927734 236.978516 C 324.249847 236.978516 329.125 238.055847 333.552734 240.208984 C 337.980438 242.362122 341.535614 245.530029 344.21875 249.714844 C 346.901886 253.899658 348.244141 259.039734 348.244141 265.134766 C 348.244141 271.229797 346.875061 276.38559 344.136719 280.603516 C 341.398346 284.821472 337.814453 288.007019 333.386719 290.160156 C 328.958984 292.313293 324.139435 293.390625 318.927734 293.390625 Z M 152.210938 293.224609 C 143.28923 293.224609 136.724487 290.248352 132.517578 284.296875 C 128.310684 278.345398 126.031067 270.413513 125.677734 260.498047 C 125.567307 255.374695 125.467239 249.98082 125.378906 244.316406 C 125.290573 238.652008 125.290573 232.959869 125.378906 227.240234 C 125.467239 221.52063 125.567307 216.275879 125.677734 211.505859 C 126.031067 201.943726 128.255081 194.125671 132.351563 188.052734 C 136.448044 181.979767 143.068405 178.887756 152.210938 178.777344 C 161.419708 178.887756 168.082611 181.979767 172.201172 188.052734 C 176.319733 194.125671 178.499283 201.943726 178.742188 211.505859 C 179.029282 216.275879 179.200653 221.52063 179.255859 227.240234 C 179.311066 232.959869 179.311066 238.652008 179.255859 244.316406 C 179.200653 249.98082 179.029282 255.374695 178.742188 260.498047 C 178.499283 270.413513 176.29097 278.345398 172.117188 284.296875 C 167.94342 290.248352 161.309296 293.224609 152.210938 293.224609 Z"/>
</svg>
