<?xml version="1.0" encoding="UTF-8"?>
<!-- Generated by Pixelmator Pro 3.4.3 -->
<svg width="472" height="472" viewBox="0 0 472 472" xmlns="http://www.w3.org/2000/svg">
    <path id="circle-14" fill="#ffffff" fill-rule="evenodd" stroke="none" d="M 236 472 C 105.661057 472 0 366.338928 0 236 C 0 105.661041 105.661057 0 236 0 C 366.338959 0 472 105.661041 472 236 C 472 366.338928 366.338959 472 236 472 Z M 153.738281 327 L 188.087891 327 C 189.964981 327 191.545334 326.358948 192.826172 325.078125 C 194.10701 323.797302 194.746094 322.218872 194.746094 320.341797 L 194.746094 148.158203 C 194.746094 146.281128 194.10701 144.702698 192.826172 143.421875 C 191.545334 142.141022 189.964981 141.5 188.087891 141.5 L 154.896484 141.5 C 153.659805 141.5 152.566772 141.615784 151.617188 141.847656 C 150.667603 142.079529 149.68576 142.58255 148.669922 143.355469 L 87.587891 190.625 C 85.953712 191.684998 84.992157 193.129974 84.705078 194.962891 C 84.417992 196.795807 84.749626 198.529907 85.699219 200.164063 L 101.367188 220.4375 C 102.648026 222.071655 104.121765 223.060059 105.789063 223.402344 C 107.45636 223.744659 109.108017 223.330597 110.742188 222.160156 L 147.080078 194.201172 L 147.080078 320.341797 C 147.080078 322.218872 147.719162 323.797302 149 325.078125 C 150.280853 326.358948 151.861191 327 153.738281 327 Z M 304.589844 327 L 337.283203 327 C 339.160278 327 340.738678 326.358948 342.019531 325.078125 C 343.300354 323.797302 343.941406 322.218872 343.941406 320.341797 L 343.941406 290.5625 L 367.560547 290.5625 C 369.437622 290.5625 371.016022 289.921448 372.296875 288.640625 C 373.577698 287.359802 374.21875 285.781372 374.21875 283.904297 L 374.21875 257.636719 C 374.21875 255.759628 373.604553 254.179291 372.378906 252.898438 C 371.15329 251.617599 369.492462 250.978516 367.394531 250.978516 L 343.941406 250.978516 L 343.941406 148.158203 C 343.941406 146.281128 343.300354 144.702698 342.019531 143.421875 C 340.738678 142.141022 339.160278 141.5 337.283203 141.5 L 298.759766 141.5 C 294.563904 141.5 291.293976 143.002502 288.953125 146.005859 L 211.873047 250.513672 C 211.078033 251.617844 210.392532 252.855423 209.818359 254.224609 C 209.244186 255.593781 208.957031 257.062927 208.957031 258.630859 L 208.957031 283.904297 C 208.957031 285.781372 209.598068 287.359802 210.878906 288.640625 C 212.159744 289.921448 213.738144 290.5625 215.615234 290.5625 L 297.931641 290.5625 L 297.931641 320.341797 C 297.931641 322.218872 298.57074 323.797302 299.851563 325.078125 C 301.132416 326.358948 302.712769 327 304.589844 327 Z M 254.570313 252.800781 L 299.089844 190.292969 L 299.089844 252.800781 L 254.570313 252.800781 Z"/>
</svg>
