<?xml version="1.0" encoding="UTF-8"?>
<!-- Generated by Pixelmator Pro 3.4.3 -->
<svg width="472" height="472" viewBox="0 0 472 472" xmlns="http://www.w3.org/2000/svg">
    <path id="circle-16" fill="#ffffff" fill-rule="evenodd" stroke="none" d="M 236 472 C 105.661057 472 0 366.338928 0 236 C 0 105.661041 105.661057 0 236 0 C 366.338959 0 472 105.661041 472 236 C 472 366.338928 366.338959 472 236 472 Z M 293.259766 329.650391 C 308.938934 329.650391 322.56958 326.61853 334.152344 320.556641 C 345.735107 314.494751 354.701782 306.362671 361.050781 296.160156 C 367.39978 285.957642 370.574219 274.728943 370.574219 262.472656 C 370.574219 252.976807 368.679901 244.392715 364.892578 236.71875 C 361.105255 229.044785 356.020782 222.457764 349.638672 216.958984 C 343.256561 211.460205 336.157379 207.126007 328.339844 203.957031 C 320.522308 200.788055 312.637543 199.038269 304.6875 198.707031 C 303.517059 198.707031 302.192474 198.773743 300.712891 198.90625 C 299.233307 199.038727 297.9198 199.236969 296.771484 199.501953 L 332.546875 150.775391 C 332.900208 150.422058 333.180847 149.936676 333.390625 149.318359 C 333.600433 148.700012 333.705078 148.036774 333.705078 147.330078 C 333.705078 145.740082 333.164093 144.371002 332.082031 143.222656 C 330.999939 142.07431 329.664246 141.5 328.074219 141.5 L 292.896484 141.5 C 290.268555 141.5 288.213959 142.1633 286.734375 143.488281 C 285.254791 144.813293 284.128387 145.91745 283.355469 146.800781 L 236.78125 209.605469 C 235.080826 211.835876 233.001358 214.861206 230.539063 218.681641 C 228.076752 222.502075 225.601578 226.829742 223.117188 231.666016 C 220.632813 236.502274 218.569046 241.620132 216.923828 247.019531 C 215.27861 252.41893 214.455078 257.846161 214.455078 263.300781 C 214.455078 276.329956 217.767548 287.834717 224.392578 297.816406 C 231.017609 307.798096 240.233521 315.598511 252.037109 321.21875 C 263.840698 326.838989 277.580566 329.650391 293.259766 329.650391 Z M 157.945313 327 L 192.294922 327 C 194.172012 327 195.750412 326.358948 197.03125 325.078125 C 198.312103 323.797302 198.953125 322.218872 198.953125 320.341797 L 198.953125 148.158203 C 198.953125 146.281128 198.312103 144.702698 197.03125 143.421875 C 195.750412 142.141022 194.172012 141.5 192.294922 141.5 L 159.103516 141.5 C 157.866837 141.5 156.773804 141.615784 155.824219 141.847656 C 154.874634 142.079529 153.892792 142.58255 152.876953 143.355469 L 91.794922 190.625 C 90.160751 191.684998 89.199196 193.129974 88.912109 194.962891 C 88.625023 196.795807 88.956665 198.529907 89.90625 200.164063 L 105.574219 220.4375 C 106.855057 222.071655 108.328796 223.060059 109.996094 223.402344 C 111.663391 223.744659 113.315048 223.330597 114.949219 222.160156 L 151.287109 194.201172 L 151.287109 320.341797 C 151.287109 322.218872 151.926193 323.797302 153.207031 325.078125 C 154.487869 326.358948 156.068222 327 157.945313 327 Z M 292.763672 291.390625 C 287.552002 291.390625 282.732422 290.313293 278.304688 288.160156 C 273.876953 286.007019 270.29306 282.821472 267.554688 278.603516 C 264.816345 274.38559 263.447266 269.229797 263.447266 263.134766 C 263.447266 257.039734 264.78952 251.899658 267.472656 247.714844 C 270.155792 243.530029 273.737762 240.362122 278.220703 238.208984 C 282.703644 236.055847 287.552002 234.978516 292.763672 234.978516 C 298.085785 234.978516 302.960938 236.055847 307.388672 238.208984 C 311.816406 240.362122 315.371552 243.530029 318.054688 247.714844 C 320.737823 251.899658 322.078125 257.039734 322.078125 263.134766 C 322.078125 269.229797 320.709045 274.38559 317.970703 278.603516 C 315.232361 282.821472 311.650391 286.007019 307.222656 288.160156 C 302.794922 290.313293 297.975372 291.390625 292.763672 291.390625 Z"/>
</svg>
