<?xml version="1.0" encoding="UTF-8"?>
<!-- Generated by Pixelmator Pro 3.4.3 -->
<svg width="472" height="472" viewBox="0 0 472 472" xmlns="http://www.w3.org/2000/svg">
    <path id="circle-02" fill="#ffffff" fill-rule="evenodd" stroke="none" d="M 236 472 C 105.661057 472 0 366.338928 0 236 C 0 105.661041 105.661057 0 236 0 C 366.338959 0 472 105.661041 472 236 C 472 366.338928 366.338959 472 236 472 Z M 155.308594 331.650391 C 168.094894 331.650391 179.143005 329.845032 188.451172 326.234375 C 197.759323 322.623718 205.47731 317.63739 211.605469 311.277344 C 217.733627 304.917297 222.39946 297.515259 225.601563 289.068359 C 228.80365 280.62146 230.658096 271.538971 231.166016 261.822266 C 231.45311 257.052246 231.624481 251.587051 231.679688 245.425781 C 231.734894 239.264496 231.734894 233.058197 231.679688 226.808594 C 231.624481 220.55896 231.45311 214.962311 231.166016 210.015625 C 230.658096 200.298889 228.748062 191.243256 225.435547 182.851563 C 222.123032 174.459839 217.347946 167.140228 211.109375 160.890625 C 204.870789 154.641022 197.124039 149.739014 187.871094 146.183594 C 178.618149 142.628143 167.763641 140.849609 155.308594 140.849609 C 142.853546 140.849609 132.000992 142.628143 122.748047 146.183594 C 113.495094 149.739014 105.748329 154.641022 99.509766 160.890625 C 93.271194 167.140228 88.496117 174.459839 85.183594 182.851563 C 81.871078 191.243256 79.961044 200.298889 79.453125 210.015625 C 79.232292 214.962311 79.078568 220.55896 78.990234 226.808594 C 78.901901 233.058197 78.901901 239.264496 78.990234 245.425781 C 79.078568 251.587051 79.232292 257.052246 79.453125 261.822266 C 80.027298 271.538971 81.899391 280.62146 85.068359 289.068359 C 88.237335 297.515259 92.885529 304.917297 99.013672 311.277344 C 105.141815 317.63739 112.859795 322.623718 122.167969 326.234375 C 131.47612 329.845032 142.522293 331.650391 155.308594 331.650391 Z M 252.564453 329 L 388.708984 329 C 390.652313 329 392.264099 328.358948 393.544922 327.078125 C 394.825775 325.797302 395.464844 324.218872 395.464844 322.341797 L 395.464844 295.675781 C 395.464844 293.732422 394.825775 292.120667 393.544922 290.839844 C 392.264099 289.559021 390.652313 288.917969 388.708984 288.917969 L 320.470703 288.917969 L 344.882813 264.439453 C 354.5112 257.21817 362.79892 250.183762 369.744141 243.337891 C 376.689392 236.492035 382.049896 229.332672 385.826172 221.857422 C 389.602417 214.382172 391.490234 206.250153 391.490234 197.460938 C 391.490234 186.110046 388.752075 176.150391 383.275391 167.582031 C 377.798676 159.013641 369.822357 152.306305 359.34375 147.458984 C 348.865173 142.611664 336.083008 140.1875 321 140.1875 C 310.157043 140.1875 300.341949 141.799255 291.552734 145.023438 C 282.763519 148.24762 275.228027 152.70871 268.945313 158.40625 C 262.662567 164.10379 257.792023 170.673096 254.335938 178.115234 C 250.879883 185.557343 249.063385 193.551361 248.886719 202.097656 C 248.886719 203.621429 249.427673 204.92572 250.509766 206.007813 C 251.591858 207.089905 252.960907 207.630859 254.617188 207.630859 L 287.742188 207.630859 C 289.685516 207.630859 291.502014 207.199127 293.191406 206.337891 C 294.880768 205.476624 296.03595 203.876007 296.654297 201.535156 C 297.383057 197.80304 298.652039 194.196869 300.462891 190.71875 C 302.273712 187.240601 304.880371 184.38208 308.28125 182.140625 C 311.682098 179.899139 315.97641 178.777344 321.166016 178.777344 C 328.740631 178.777344 334.078918 180.75412 337.181641 184.707031 C 340.284363 188.659973 341.835938 193.628693 341.835938 199.613281 C 341.835938 204.869141 339.627625 210.41217 335.210938 216.242188 C 330.79425 222.072235 324.031311 228.719391 314.921875 236.183594 C 305.812469 243.647797 294.203125 252.734879 280.091797 263.445313 L 252.53125 290.507813 C 249.505829 292.804504 247.644867 295.235199 246.949219 297.796875 C 246.253601 300.358551 245.90625 302.301941 245.90625 303.626953 L 245.90625 322.341797 C 245.90625 324.218872 246.547272 325.797302 247.828125 327.078125 C 249.108948 328.358948 250.687378 329 252.564453 329 Z M 155.308594 293.224609 C 146.386902 293.224609 139.824081 290.248352 135.617188 284.296875 C 131.410294 278.345398 129.128723 270.413513 128.775391 260.498047 C 128.664978 255.374695 128.566849 249.98082 128.478516 244.316406 C 128.390182 238.652008 128.390182 232.959869 128.478516 227.240234 C 128.566849 221.52063 128.664978 216.275879 128.775391 211.505859 C 129.128723 201.943726 131.354691 194.125671 135.451172 188.052734 C 139.547638 181.979767 146.166061 178.887756 155.308594 178.777344 C 164.51738 178.887756 171.18222 181.979767 175.300781 188.052734 C 179.419342 194.125671 181.598877 201.943726 181.841797 211.505859 C 182.128876 216.275879 182.300262 221.52063 182.355469 227.240234 C 182.410675 232.959869 182.410675 238.652008 182.355469 244.316406 C 182.300262 249.98082 182.128876 255.374695 181.841797 260.498047 C 181.598877 270.413513 179.390564 278.345398 175.216797 284.296875 C 171.04303 290.248352 164.406967 293.224609 155.308594 293.224609 Z"/>
</svg>
