<?xml version="1.0" encoding="UTF-8"?>
<!-- Generated by Pixelmator Pro 3.4.3 -->
<svg width="472" height="472" viewBox="0 0 472 472" xmlns="http://www.w3.org/2000/svg">
    <path id="circle-15" fill="#ffffff" fill-rule="evenodd" stroke="none" d="M 236 472 C 105.661057 472 0 366.338928 0 236 C 0 105.661041 105.661057 0 236 0 C 366.338959 0 472 105.661041 472 236 C 472 366.338928 366.338959 472 236 472 Z M 291.140625 329.980469 C 307.283539 329.980469 321.079041 327.18866 332.529297 321.601563 C 343.979553 316.014465 352.770294 308.350098 358.898438 298.611328 C 365.026611 288.872559 368.089844 277.77533 368.089844 265.320313 C 368.089844 256.155701 366.344666 247.881058 362.855469 240.494141 C 359.366302 233.107224 354.580078 226.758362 348.496094 221.447266 C 342.412109 216.1362 335.528809 212.062347 327.84375 209.224609 C 320.158722 206.386902 312.120209 204.966797 303.728516 204.966797 C 294.608063 204.966797 287.446747 205.828278 282.246094 207.550781 C 277.045441 209.273315 272.535278 211.414886 268.714844 213.976563 L 272.126953 179.759766 L 349.009766 179.759766 C 350.886871 179.759766 352.465271 179.118713 353.746094 177.837891 C 355.026947 176.557037 355.667969 174.978638 355.667969 173.101563 L 355.667969 148.158203 C 355.667969 146.281128 355.026947 144.702698 353.746094 143.421875 C 352.465271 142.141022 350.886871 141.5 349.009766 141.5 L 242.578125 141.5 C 240.369781 141.5 238.448639 142.167847 236.814453 143.503906 C 235.180283 144.839966 234.220673 146.810181 233.933594 149.416016 L 224.328125 241.869141 C 224.261871 243.459152 224.818542 244.828217 226 245.976563 C 227.181458 247.124893 228.566254 247.699219 230.15625 247.699219 L 264.90625 247.699219 C 266.628754 247.699219 268.196014 247.207321 269.609375 246.224609 C 271.022705 245.241898 272.618774 244.07756 274.396484 242.730469 C 276.174194 241.383377 278.382507 240.217102 281.021484 239.234375 C 283.660461 238.251663 287.088715 237.761719 291.306641 237.761719 C 296.761261 237.761719 301.57428 238.903824 305.748047 241.189453 C 309.921814 243.475098 313.189819 246.571701 315.552734 250.480469 C 317.915649 254.389236 319.097656 258.950409 319.097656 264.162109 C 319.097656 270.080444 317.833252 275.104767 315.304688 279.234375 C 312.776154 283.363983 309.396942 286.476288 305.167969 288.574219 C 300.938965 290.67215 296.31958 291.722656 291.306641 291.722656 C 287.154938 291.722656 283.372833 291.103851 279.960938 289.867188 C 276.549042 288.630493 273.557068 286.675995 270.984375 284.003906 C 268.411652 281.331787 266.26355 277.963745 264.541016 273.900391 C 263.944763 272.464966 262.962921 271.282959 261.59375 270.355469 C 260.224579 269.427979 258.390442 268.964844 256.09375 268.964844 L 220.75 268.964844 C 219.159988 268.964844 217.80661 269.490112 216.691406 270.539063 C 215.576187 271.588013 215.052887 272.906067 215.119141 274.496094 C 215.472473 284.16861 218.50238 293.228882 224.210938 301.675781 C 229.91951 310.122681 238.367493 316.952362 249.552734 322.164063 C 260.738007 327.375732 274.600189 329.980469 291.140625 329.980469 Z M 158.607422 327 L 192.957031 327 C 194.834122 327 196.414474 326.358948 197.695313 325.078125 C 198.976151 323.797302 199.615234 322.218872 199.615234 320.341797 L 199.615234 148.158203 C 199.615234 146.281128 198.976151 144.702698 197.695313 143.421875 C 196.414474 142.141022 194.834122 141.5 192.957031 141.5 L 159.765625 141.5 C 158.528961 141.5 157.435928 141.615784 156.486328 141.847656 C 155.536743 142.079529 154.554901 142.58255 153.539063 143.355469 L 92.457031 190.625 C 90.822853 191.684998 89.861305 193.129974 89.574219 194.962891 C 89.28714 196.795807 89.618774 198.529907 90.568359 200.164063 L 106.236328 220.4375 C 107.517166 222.071655 108.990898 223.060059 110.658203 223.402344 C 112.3255 223.744659 113.977158 223.330597 115.611328 222.160156 L 151.949219 194.201172 L 151.949219 320.341797 C 151.949219 322.218872 152.590256 323.797302 153.871094 325.078125 C 155.151932 326.358948 156.730316 327 158.607422 327 Z"/>
</svg>
