<?xml version="1.0" encoding="UTF-8"?>
<!-- Generated by Pixelmator Pro 3.4.3 -->
<svg width="472" height="472" viewBox="0 0 472 472" xmlns="http://www.w3.org/2000/svg">
    <path id="circle-17" fill="#ffffff" fill-rule="evenodd" stroke="none" d="M 236 472 C 105.661057 472 0 366.338928 0 236 C 0 105.661041 105.661057 0 236 0 C 366.338959 0 472 105.661041 472 236 C 472 366.338928 366.338959 472 236 472 Z M 168.212891 327 L 202.564453 327 C 204.441559 327 206.019943 326.358948 207.300781 325.078125 C 208.581619 323.797302 209.222656 322.218872 209.222656 320.341797 L 209.222656 148.158203 C 209.222656 146.281128 208.581619 144.702698 207.300781 143.421875 C 206.019943 142.141022 204.441559 141.5 202.564453 141.5 L 169.373047 141.5 C 168.136368 141.5 167.043335 141.615784 166.09375 141.847656 C 165.14415 142.079529 164.16037 142.58255 163.144531 143.355469 L 102.0625 190.625 C 100.428322 191.684998 99.468727 193.129974 99.181641 194.962891 C 98.894554 196.795807 99.224236 198.529907 100.173828 200.164063 L 115.84375 220.4375 C 117.124588 222.071655 118.598328 223.060059 120.265625 223.402344 C 121.932922 223.744659 123.582611 223.330597 125.216797 222.160156 L 161.554688 194.201172 L 161.554688 320.341797 C 161.554688 322.218872 162.195724 323.797302 163.476563 325.078125 C 164.757401 326.358948 166.3358 327 168.212891 327 Z M 253.34375 327 L 287.396484 327 C 290.223175 327 292.344452 326.220947 293.757813 324.664063 C 295.171143 323.107178 296.175232 321.789124 296.771484 320.707031 L 358.019531 183.734375 C 358.836609 181.967712 359.515594 180.173431 360.056641 178.351563 C 360.597687 176.529694 360.869141 174.283417 360.869141 171.611328 L 360.869141 148.257813 C 360.869141 146.314453 360.254944 144.702698 359.029297 143.421875 C 357.80368 142.141022 356.1651 141.5 354.111328 141.5 L 230.125 141.5 C 228.247894 141.5 226.667557 142.141022 225.386719 143.421875 C 224.105881 144.702698 223.466797 146.314453 223.466797 148.257813 L 223.466797 174.757813 C 223.466797 176.634888 224.105881 178.213287 225.386719 179.494141 C 226.667557 180.774963 228.247894 181.416016 230.125 181.416016 L 309.558594 181.416016 L 248.244141 318.785156 C 247.890808 319.624329 247.712891 320.419067 247.712891 321.169922 C 247.712891 322.759949 248.253876 324.129028 249.335938 325.277344 C 250.41803 326.42569 251.753723 327 253.34375 327 Z"/>
</svg>
