<?xml version="1.0" encoding="UTF-8"?>
<!-- Generated by Pixelmator Pro 3.4.3 -->
<svg width="472" height="472" viewBox="0 0 472 472" xmlns="http://www.w3.org/2000/svg">
    <path id="circle-19" fill="#ffffff" fill-rule="evenodd" stroke="none" d="M 236 472 C 105.661057 472 0 366.338928 0 236 C 0 105.661041 105.661057 0 236 0 C 366.338959 0 472 105.661041 472 236 C 472 366.338928 366.338959 472 236 472 Z M 159.1875 327 L 193.537109 327 C 195.4142 327 196.992599 326.358948 198.273438 325.078125 C 199.554291 323.797302 200.195313 322.218872 200.195313 320.341797 L 200.195313 148.158203 C 200.195313 146.281128 199.554291 144.702698 198.273438 143.421875 C 196.992599 142.141022 195.4142 141.5 193.537109 141.5 L 160.345703 141.5 C 159.109024 141.5 158.015991 141.615784 157.066406 141.847656 C 156.116821 142.079529 155.134979 142.58255 154.119141 143.355469 L 93.037109 190.625 C 91.402939 191.684998 90.441383 193.129974 90.154297 194.962891 C 89.86721 196.795807 90.198853 198.529907 91.148438 200.164063 L 106.816406 220.4375 C 108.097244 222.071655 109.570984 223.060059 111.238281 223.402344 C 112.905579 223.744659 114.557236 223.330597 116.191406 222.160156 L 152.529297 194.201172 L 152.529297 320.341797 C 152.529297 322.218872 153.168381 323.797302 154.449219 325.078125 C 155.730057 326.358948 157.31041 327 159.1875 327 Z M 253.0625 327 L 288.341797 327 C 291.146393 327 293.261169 326.336731 294.685547 325.011719 C 296.109924 323.686707 297.174194 322.582581 297.880859 321.699219 L 340.214844 263.632813 C 344.543213 257.537781 348.810669 251.431564 353.017578 245.314453 C 357.224457 239.197342 360.763916 232.677063 363.634766 225.753906 C 366.505615 218.83075 367.941406 211.371155 367.941406 203.376953 C 367.941406 194.411072 366.274048 186.031769 362.939453 178.236328 C 359.604858 170.440857 354.651855 163.582428 348.082031 157.664063 C 341.512207 151.745697 333.413544 147.130859 323.785156 143.818359 C 314.156769 140.505829 303.048523 138.849609 290.460938 138.849609 C 277.873383 138.849609 266.849487 140.699463 257.386719 144.398438 C 247.924011 148.097412 240.005829 153.070679 233.634766 159.320313 C 227.263687 165.569916 222.495148 172.648804 219.326172 180.554688 C 216.157196 188.460541 214.572266 196.619415 214.572266 205.033203 C 214.572266 214.21991 216.348862 222.556671 219.904297 230.042969 C 223.459732 237.529266 228.285828 243.955994 234.380859 249.322266 C 240.475876 254.688553 247.316681 258.916138 254.902344 262.007813 C 262.488007 265.099487 270.255066 266.866943 278.205078 267.308594 C 280.855103 267.419006 283.450623 267.209686 285.990234 266.679688 L 248.591797 317.724609 C 248.415131 318.077942 248.177032 318.520782 247.878906 319.050781 C 247.58078 319.58078 247.431641 320.286591 247.431641 321.169922 C 247.431641 322.759949 247.972595 324.129028 249.054688 325.277344 C 250.13678 326.42569 251.472504 327 253.0625 327 Z M 290.958984 232.527344 C 285.747284 232.527344 281.032379 231.41861 276.814453 229.199219 C 272.596527 226.979858 269.250671 223.809967 266.777344 219.691406 C 264.303986 215.572845 263.066406 210.630951 263.066406 204.867188 C 263.066406 199.03714 264.303986 194.063873 266.777344 189.945313 C 269.250671 185.826752 272.596527 182.656891 276.814453 180.4375 C 281.032379 178.218109 285.747284 177.109375 290.958984 177.109375 C 296.170685 177.109375 300.901276 178.218109 305.152344 180.4375 C 309.403412 182.656891 312.764954 185.826752 315.238281 189.945313 C 317.711639 194.063873 318.949219 199.03714 318.949219 204.867188 C 318.949219 210.630951 317.711639 215.572845 315.238281 219.691406 C 312.764954 223.809967 309.430237 226.979858 305.234375 229.199219 C 301.038544 231.41861 296.281097 232.527344 290.958984 232.527344 Z"/>
</svg>
