<?xml version="1.0" encoding="UTF-8"?>
<!-- Generated by Pixelmator Pro 3.4.3 -->
<svg width="472" height="472" viewBox="0 0 472 472" xmlns="http://www.w3.org/2000/svg">
    <path id="circle-07" fill="#ffffff" fill-rule="evenodd" stroke="none" d="M 236 472 C 105.661057 472 0 366.338928 0 236 C 0 105.661041 105.661057 0 236 0 C 366.338959 0 472 105.661041 472 236 C 472 366.338928 366.338959 472 236 472 Z M 162.478516 331.650391 C 175.264816 331.650391 186.312927 329.845032 195.621094 326.234375 C 204.929245 322.623718 212.647232 317.63739 218.775391 311.277344 C 224.903549 304.917297 229.567444 297.515259 232.769531 289.068359 C 235.971649 280.62146 237.828033 271.538971 238.335938 261.822266 C 238.623016 257.052246 238.79245 251.587051 238.847656 245.425781 C 238.902863 239.264496 238.902863 233.058197 238.847656 226.808594 C 238.79245 220.55896 238.623016 214.962311 238.335938 210.015625 C 237.828033 200.298889 235.916046 191.243256 232.603516 182.851563 C 229.291016 174.459839 224.515915 167.140228 218.277344 160.890625 C 212.038773 154.641022 204.293976 149.739014 195.041016 146.183594 C 185.788071 142.628143 174.933563 140.849609 162.478516 140.849609 C 150.023468 140.849609 139.168961 142.628143 129.916016 146.183594 C 120.663063 149.739014 112.918251 154.641022 106.679688 160.890625 C 100.441124 167.140228 95.666031 174.459839 92.353516 182.851563 C 89.041 191.243256 87.130966 200.298889 86.623047 210.015625 C 86.402214 214.962311 86.246536 220.55896 86.158203 226.808594 C 86.06987 233.058197 86.06987 239.264496 86.158203 245.425781 C 86.246536 251.587051 86.402214 257.052246 86.623047 261.822266 C 87.19722 271.538971 89.067352 280.62146 92.236328 289.068359 C 95.405296 297.515259 100.055443 304.917297 106.183594 311.277344 C 112.311745 317.63739 120.029732 322.623718 129.337891 326.234375 C 138.646042 329.845032 149.692215 331.650391 162.478516 331.650391 Z M 279.509766 329 L 313.5625 329 C 316.38916 329 318.508545 328.220947 319.921875 326.664063 C 321.335205 325.107178 322.339294 323.789124 322.935547 322.707031 L 384.183594 185.734375 C 385.000671 183.967712 385.679657 182.173431 386.220703 180.351563 C 386.761749 178.529694 387.033203 176.283417 387.033203 173.611328 L 387.033203 150.257813 C 387.033203 148.314453 386.420929 146.702698 385.195313 145.421875 C 383.969666 144.141022 382.329132 143.5 380.275391 143.5 L 256.289063 143.5 C 254.411957 143.5 252.833557 144.141022 251.552734 145.421875 C 250.271881 146.702698 249.630859 148.314453 249.630859 150.257813 L 249.630859 176.757813 C 249.630859 178.634888 250.271881 180.213287 251.552734 181.494141 C 252.833557 182.774963 254.411957 183.416016 256.289063 183.416016 L 335.722656 183.416016 L 274.408203 320.785156 C 274.054871 321.624329 273.878906 322.419067 273.878906 323.169922 C 273.878906 324.759949 274.419861 326.129028 275.501953 327.277344 C 276.584045 328.42569 277.919769 329 279.509766 329 Z M 162.478516 293.224609 C 153.556824 293.224609 146.99205 290.248352 142.785156 284.296875 C 138.578262 278.345398 136.29866 270.413513 135.945313 260.498047 C 135.8349 255.374695 135.736771 249.98082 135.648438 244.316406 C 135.560104 238.652008 135.560104 232.959869 135.648438 227.240234 C 135.736771 221.52063 135.8349 216.275879 135.945313 211.505859 C 136.29866 201.943726 138.524612 194.125671 142.621094 188.052734 C 146.717575 181.979767 153.335983 178.887756 162.478516 178.777344 C 171.687302 178.887756 178.350189 181.979767 182.46875 188.052734 C 186.587326 194.125671 188.768799 201.943726 189.011719 211.505859 C 189.298813 216.275879 189.470184 221.52063 189.525391 227.240234 C 189.580597 232.959869 189.580597 238.652008 189.525391 244.316406 C 189.470184 249.98082 189.298813 255.374695 189.011719 260.498047 C 188.768799 270.413513 186.560486 278.345398 182.386719 284.296875 C 178.212952 290.248352 171.576889 293.224609 162.478516 293.224609 Z"/>
</svg>
