<?xml version="1.0" encoding="UTF-8"?>
<!-- Generated by Pixelmator Pro 3.4.3 -->
<svg width="472" height="472" viewBox="0 0 472 472" xmlns="http://www.w3.org/2000/svg">
    <path id="circle-09" fill="#ffffff" fill-rule="evenodd" stroke="none" d="M 236 472 C 105.661057 472 0 366.338928 0 236 C 0 105.661041 105.661057 0 236 0 C 366.338959 0 472 105.661041 472 236 C 472 366.338928 366.338959 472 236 472 Z M 154.453125 331.650391 C 167.23941 331.650391 178.285599 329.845032 187.59375 326.234375 C 196.901901 322.623718 204.619888 317.63739 210.748047 311.277344 C 216.876205 304.917297 221.542038 297.515259 224.744141 289.068359 C 227.946243 280.62146 229.800674 271.538971 230.308594 261.822266 C 230.595673 257.052246 230.767059 251.587051 230.822266 245.425781 C 230.877472 239.264496 230.877472 233.058197 230.822266 226.808594 C 230.767059 220.55896 230.595673 214.962311 230.308594 210.015625 C 229.800674 200.298889 227.89064 191.243256 224.578125 182.851563 C 221.265594 174.459839 216.490524 167.140228 210.251953 160.890625 C 204.013382 154.641022 196.266617 149.739014 187.013672 146.183594 C 177.760712 142.628143 166.908173 140.849609 154.453125 140.849609 C 141.998077 140.849609 131.14357 142.628143 121.890625 146.183594 C 112.637657 149.739014 104.890907 154.641022 98.652344 160.890625 C 92.41378 167.140228 87.638687 174.459839 84.326172 182.851563 C 81.013657 191.243256 79.103622 200.298889 78.595703 210.015625 C 78.37487 214.962311 78.221146 220.55896 78.132813 226.808594 C 78.044479 233.058197 78.044479 239.264496 78.132813 245.425781 C 78.221146 251.587051 78.37487 257.052246 78.595703 261.822266 C 79.169868 271.538971 81.041962 280.62146 84.210938 289.068359 C 87.379913 297.515259 92.028099 304.917297 98.15625 311.277344 C 104.284401 317.63739 112.002388 322.623718 121.310547 326.234375 C 130.618698 329.845032 141.666824 331.650391 154.453125 331.650391 Z M 280.228516 329 L 315.505859 329 C 318.310455 329 320.425232 328.336731 321.849609 327.011719 C 323.273987 325.686707 324.34021 324.582581 325.046875 323.699219 L 367.378906 265.632813 C 371.707245 259.537781 375.974762 253.431564 380.181641 247.314453 C 384.38855 241.197342 387.927979 234.677063 390.798828 227.753906 C 393.669678 220.83075 395.105469 213.371155 395.105469 205.376953 C 395.105469 196.411072 393.438141 188.031769 390.103516 180.236328 C 386.768921 172.440857 381.815918 165.582428 375.246094 159.664063 C 368.67627 153.745697 360.577606 149.130859 350.949219 145.818359 C 341.320862 142.505829 330.212555 140.849609 317.625 140.849609 C 305.037415 140.849609 294.013519 142.699463 284.550781 146.398438 C 275.088013 150.097412 267.171875 155.070679 260.800781 161.320313 C 254.429718 167.569916 249.65921 174.648804 246.490234 182.554688 C 243.321259 190.460541 241.736328 198.619415 241.736328 207.033203 C 241.736328 216.219879 243.514862 224.556671 247.070313 232.042969 C 250.625732 239.529266 255.44989 245.955994 261.544922 251.322266 C 267.639954 256.688538 274.480743 260.916138 282.066406 264.007813 C 289.652069 267.099487 297.419098 268.866943 305.369141 269.308594 C 308.019165 269.419006 310.614716 269.209686 313.154297 268.679688 L 275.755859 319.724609 C 275.579193 320.077942 275.341095 320.520782 275.042969 321.050781 C 274.744843 321.58078 274.595703 322.286591 274.595703 323.169922 C 274.595703 324.759949 275.136658 326.129028 276.21875 327.277344 C 277.300842 328.42569 278.638519 329 280.228516 329 Z M 154.453125 293.224609 C 145.531418 293.224609 138.966675 290.248352 134.759766 284.296875 C 130.552872 278.345398 128.273254 270.413513 127.919922 260.498047 C 127.809494 255.374695 127.709427 249.98082 127.621094 244.316406 C 127.532761 238.652008 127.532761 232.959869 127.621094 227.240234 C 127.709427 221.52063 127.809494 216.275879 127.919922 211.505859 C 128.273254 201.943726 130.497269 194.125671 134.59375 188.052734 C 138.690231 181.979767 145.310593 178.887756 154.453125 178.777344 C 163.661896 178.887756 170.324799 181.979767 174.443359 188.052734 C 178.56192 194.125671 180.74147 201.943726 180.984375 211.505859 C 181.271469 216.275879 181.442841 221.52063 181.498047 227.240234 C 181.553253 232.959869 181.553253 238.652008 181.498047 244.316406 C 181.442841 249.98082 181.271469 255.374695 180.984375 260.498047 C 180.74147 270.413513 178.533157 278.345398 174.359375 284.296875 C 170.185608 290.248352 163.551483 293.224609 154.453125 293.224609 Z M 318.123047 234.527344 C 312.911377 234.527344 308.196472 233.41861 303.978516 231.199219 C 299.76059 228.979858 296.414764 225.809967 293.941406 221.691406 C 291.468079 217.572845 290.232422 212.630951 290.232422 206.867188 C 290.232422 201.03714 291.468079 196.063873 293.941406 191.945313 C 296.414764 187.826752 299.76059 184.656891 303.978516 182.4375 C 308.196472 180.218109 312.911377 179.109375 318.123047 179.109375 C 323.334747 179.109375 328.065369 180.218109 332.316406 182.4375 C 336.567474 184.656891 339.930939 187.826752 342.404297 191.945313 C 344.877625 196.063873 346.113281 201.03714 346.113281 206.867188 C 346.113281 212.630951 344.877625 217.572845 342.404297 221.691406 C 339.930939 225.809967 336.596252 228.979858 332.400391 231.199219 C 328.204529 233.41861 323.44516 234.527344 318.123047 234.527344 Z"/>
</svg>
