<?xml version="1.0" encoding="UTF-8"?>
<!-- Generated by Pixelmator Pro 3.4.3 -->
<svg width="472" height="472" viewBox="0 0 472 472" xmlns="http://www.w3.org/2000/svg">
    <path id="circle-11" fill="#ffffff" fill-rule="evenodd" stroke="none" d="M 236 472 C 105.661057 472 0 366.338928 0 236 C 0 105.661041 105.661057 0 236 0 C 366.338959 0 472 105.661041 472 236 C 472 366.338928 366.338959 472 236 472 Z M 178.267578 327 L 212.617188 327 C 214.494293 327 216.072678 326.358948 217.353516 325.078125 C 218.634354 323.797302 219.275391 322.218872 219.275391 320.341797 L 219.275391 148.158203 C 219.275391 146.281128 218.634354 144.702698 217.353516 143.421875 C 216.072678 142.141022 214.494293 141.5 212.617188 141.5 L 179.425781 141.5 C 178.189102 141.5 177.096069 141.615784 176.146484 141.847656 C 175.196884 142.079529 174.215057 142.58255 173.199219 143.355469 L 112.117188 190.625 C 110.483002 191.684998 109.521454 193.129974 109.234375 194.962891 C 108.947289 196.795807 109.278931 198.529907 110.228516 200.164063 L 125.896484 220.4375 C 127.177322 222.071655 128.651062 223.060059 130.318359 223.402344 C 131.985657 223.744659 133.637299 223.330597 135.271484 222.160156 L 171.609375 194.201172 L 171.609375 320.341797 C 171.609375 322.218872 172.248459 323.797302 173.529297 325.078125 C 174.810135 326.358948 176.390488 327 178.267578 327 Z M 299.470703 327 L 333.822266 327 C 335.699371 327 337.277771 326.358948 338.558594 325.078125 C 339.839447 323.797302 340.480469 322.218872 340.480469 320.341797 L 340.480469 148.158203 C 340.480469 146.281128 339.839447 144.702698 338.558594 143.421875 C 337.277771 142.141022 335.699371 141.5 333.822266 141.5 L 300.630859 141.5 C 299.394196 141.5 298.301147 141.615784 297.351563 141.847656 C 296.401978 142.079529 295.418182 142.58255 294.402344 143.355469 L 233.320313 190.625 C 231.686142 191.684998 230.726532 193.129974 230.439453 194.962891 C 230.152374 196.795807 230.482056 198.529907 231.431641 200.164063 L 247.101563 220.4375 C 248.382416 222.071655 249.85611 223.060059 251.523438 223.402344 C 253.190735 223.744659 254.840424 223.330597 256.474609 222.160156 L 292.8125 194.201172 L 292.8125 320.341797 C 292.8125 322.218872 293.453522 323.797302 294.734375 325.078125 C 296.015228 326.358948 297.593597 327 299.470703 327 Z"/>
</svg>
