<?xml version="1.0" encoding="UTF-8"?>
<!-- Generated by Pixelmator Pro 3.4.3 -->
<svg width="472" height="472" viewBox="0 0 472 472" xmlns="http://www.w3.org/2000/svg">
    <path id="circle-13" fill="#ffffff" fill-rule="evenodd" stroke="none" d="M 236 472 C 105.661057 472 0 366.338928 0 236 C 0 105.661041 105.661057 0 236 0 C 366.338959 0 472 105.661041 472 236 C 472 366.338928 366.338959 472 236 472 Z M 290.626953 329.650391 C 305.687866 329.650391 319.064636 327.26416 330.757813 322.494141 C 342.450989 317.724121 351.671478 310.956543 358.417969 302.189453 C 365.164459 293.422363 368.537109 283.044006 368.537109 271.052734 C 368.537109 259.657715 366.268616 250.21022 361.730469 242.712891 C 357.192322 235.215546 350.952667 229.429871 343.013672 225.355469 C 335.074677 221.281097 326.058929 218.582825 315.966797 217.257813 L 313.980469 216.759766 L 354.326172 179.294922 C 355.408234 178.477844 356.363281 177.340302 357.191406 175.882813 C 358.019531 174.425293 358.433594 172.726532 358.433594 170.783203 L 358.433594 148.257813 C 358.433594 146.314453 357.792542 144.702698 356.511719 143.421875 C 355.230865 142.141022 353.619141 141.5 351.675781 141.5 L 229.808594 141.5 C 227.931503 141.5 226.353104 142.141022 225.072266 143.421875 C 223.791428 144.702698 223.150391 146.314453 223.150391 148.257813 L 223.150391 173.101563 C 223.150391 174.978638 223.791428 176.557037 225.072266 177.837891 C 226.353104 179.118713 227.931503 179.759766 229.808594 179.759766 L 303.380859 179.759766 L 259.886719 216.494141 C 258.848785 217.267059 257.889191 218.41568 257.005859 219.939453 C 256.122528 221.463196 255.679688 223.31958 255.679688 225.505859 L 255.679688 240.412109 C 255.679688 242.2892 256.320709 243.867584 257.601563 245.148438 C 258.882385 246.429276 260.460785 247.070313 262.337891 247.070313 L 291.787109 247.070313 C 300.532135 247.070313 307.288574 248.708893 312.058594 251.988281 C 316.828613 255.26767 319.212891 260.628204 319.212891 268.070313 C 319.212891 275.402039 316.717407 281.14978 311.726563 285.3125 C 306.735687 289.47522 299.75885 291.556641 290.792969 291.556641 C 286.089172 291.556641 281.810577 291.136047 277.957031 290.296875 C 274.103455 289.457703 270.790985 287.983978 268.019531 285.875 C 265.248047 283.766052 263.166656 281.012177 261.775391 277.611328 C 260.737488 275.844666 259.611084 274.580261 258.396484 273.818359 C 257.181915 273.056488 255.536774 272.675781 253.460938 272.675781 L 218.779297 272.675781 C 217.189285 272.675781 215.835922 273.199097 214.720703 274.248047 C 213.605499 275.296997 213.048828 276.617004 213.048828 278.207031 C 213.225494 283.705811 214.826126 289.424805 217.851563 295.365234 C 220.876984 301.305664 225.469574 306.866333 231.630859 312.044922 C 237.792145 317.22348 245.752808 321.45108 255.513672 324.730469 C 265.274567 328.009857 276.979401 329.650391 290.626953 329.650391 Z M 156.835938 327 L 191.185547 327 C 193.062637 327 194.641037 326.358948 195.921875 325.078125 C 197.202713 323.797302 197.84375 322.218872 197.84375 320.341797 L 197.84375 148.158203 C 197.84375 146.281128 197.202713 144.702698 195.921875 143.421875 C 194.641037 142.141022 193.062637 141.5 191.185547 141.5 L 157.994141 141.5 C 156.757477 141.5 155.664429 141.615784 154.714844 141.847656 C 153.765259 142.079529 152.783417 142.58255 151.767578 143.355469 L 90.683594 190.625 C 89.049423 191.684998 88.089821 193.129974 87.802734 194.962891 C 87.515656 196.795807 87.84729 198.529907 88.796875 200.164063 L 104.464844 220.4375 C 105.745682 222.071655 107.219414 223.060059 108.886719 223.402344 C 110.554016 223.744659 112.20372 223.330597 113.837891 222.160156 L 150.177734 194.201172 L 150.177734 320.341797 C 150.177734 322.218872 150.816818 323.797302 152.097656 325.078125 C 153.378494 326.358948 154.958832 327 156.835938 327 Z"/>
</svg>
