<?xml version="1.0" encoding="UTF-8"?>
<!-- Generated by Pixelmator Pro 3.4.3 -->
<svg width="472" height="472" viewBox="0 0 472 472" xmlns="http://www.w3.org/2000/svg">
    <path id="circle-18" fill="#ffffff" fill-rule="evenodd" stroke="none" d="M 236 472 C 105.661057 472 0 366.338928 0 236 C 0 105.661041 105.661057 0 236 0 C 366.338959 0 472 105.661041 472 236 C 472 366.338928 366.338959 472 236 472 Z M 291.736328 329.650391 C 309.226349 329.650391 323.736115 327.032593 335.263672 321.798828 C 346.791229 316.565063 355.402069 309.55481 361.099609 300.765625 C 366.79715 291.97644 369.646484 282.270538 369.646484 271.648438 C 369.646484 261.887573 367.295563 253.214569 362.591797 245.628906 C 357.888031 238.043243 351.581635 232.351105 343.675781 228.552734 C 349.748718 224.378967 354.354401 219.183289 357.490234 212.966797 C 360.626099 206.750305 362.193359 199.624329 362.193359 191.585938 C 362.193359 181.692566 359.68219 172.781464 354.658203 164.853516 C 349.634216 156.925568 341.927368 150.610016 331.537109 145.90625 C 321.146851 141.202454 307.879242 138.849609 291.736328 138.849609 C 275.593384 138.849609 262.272186 141.229309 251.771484 145.988281 C 241.270844 150.747253 233.481537 157.118408 228.402344 165.101563 C 223.323151 173.084717 220.783203 182.022614 220.783203 191.916016 C 220.783203 199.954376 222.432907 207.053558 225.734375 213.214844 C 229.035843 219.376099 233.723923 224.48938 239.796875 228.552734 C 232.332657 232.57193 226.1931 238.264084 221.378906 245.628906 C 216.564713 252.993744 214.158203 261.555542 214.158203 271.316406 C 214.158203 279.376831 215.743134 286.918884 218.912109 293.941406 C 222.081085 300.963928 226.860748 307.14801 233.253906 312.492188 C 239.647049 317.836365 247.718933 322.030609 257.46875 325.078125 C 267.218597 328.125641 278.640839 329.650391 291.736328 329.650391 Z M 154.5 327 L 188.849609 327 C 190.7267 327 192.307053 326.358948 193.587891 325.078125 C 194.868729 323.797302 195.507813 322.218872 195.507813 320.341797 L 195.507813 148.158203 C 195.507813 146.281128 194.868729 144.702698 193.587891 143.421875 C 192.307053 142.141022 190.7267 141.5 188.849609 141.5 L 155.658203 141.5 C 154.421539 141.5 153.328491 141.615784 152.378906 141.847656 C 151.429321 142.079529 150.447479 142.58255 149.431641 143.355469 L 88.349609 190.625 C 86.715439 191.684998 85.753883 193.129974 85.466797 194.962891 C 85.17971 196.795807 85.511353 198.529907 86.460938 200.164063 L 102.128906 220.4375 C 103.409752 222.071655 104.883484 223.060059 106.550781 223.402344 C 108.218086 223.744659 109.869736 223.330597 111.503906 222.160156 L 147.841797 194.201172 L 147.841797 320.341797 C 147.841797 322.218872 148.482834 323.797302 149.763672 325.078125 C 151.04451 326.358948 152.622894 327 154.5 327 Z M 291.736328 295.863281 C 286.1492 295.863281 281.064728 294.879517 276.482422 292.914063 C 271.900085 290.948639 268.28479 288.128052 265.634766 284.451172 C 262.984741 280.774292 261.658203 276.451202 261.658203 271.482422 C 261.658203 266.336975 262.984741 261.969421 265.634766 258.380859 C 268.28479 254.792297 271.900085 252.031906 276.482422 250.099609 C 281.064728 248.167313 286.1492 247.201172 291.736328 247.201172 C 297.389679 247.201172 302.491821 248.167313 307.041016 250.099609 C 311.59021 252.031906 315.18985 254.792297 317.839844 258.380859 C 320.489868 261.969421 321.814453 266.336975 321.814453 271.482422 C 321.814453 276.451202 320.489868 280.774292 317.839844 284.451172 C 315.18985 288.128052 311.59021 290.948639 307.041016 292.914063 C 302.491821 294.879517 297.389679 295.863281 291.736328 295.863281 Z M 291.736328 215.236328 C 286.612946 215.236328 282.053741 214.341492 278.056641 212.552734 C 274.05954 210.763977 270.934174 208.297272 268.681641 205.150391 C 266.429138 202.00351 265.302734 198.310333 265.302734 194.070313 C 265.302734 189.830292 266.429138 186.108337 268.681641 182.90625 C 270.934174 179.704163 274.05954 177.219788 278.056641 175.453125 C 282.053741 173.686462 286.612946 172.802734 291.736328 172.802734 C 296.925934 172.802734 301.529633 173.686462 305.548828 175.453125 C 309.568024 177.219788 312.704529 179.704163 314.957031 182.90625 C 317.209534 186.108337 318.335938 189.830292 318.335938 194.070313 C 318.335938 198.24408 317.176178 201.886261 314.857422 205 C 312.538666 208.11377 309.370728 210.582428 305.351563 212.404297 C 301.332367 214.226196 296.793427 215.170105 291.736328 215.236328 Z"/>
</svg>
