<?xml version="1.0" encoding="UTF-8"?>
<!-- Generated by Pixelmator Pro 3.4.3 -->
<svg width="472" height="472" viewBox="0 0 472 472" xmlns="http://www.w3.org/2000/svg">
    <path id="circle-10" fill="#ffffff" fill-rule="evenodd" stroke="none" d="M 236 472 C 105.661057 472 0 366.338928 0 236 C 0 105.661041 105.661057 0 236 0 C 366.338959 0 472 105.661041 472 236 C 472 366.338928 366.338959 472 236 472 Z M 291.736328 329.650391 C 304.522644 329.650391 315.57074 327.845032 324.878906 324.234375 C 334.187103 320.623718 341.90506 315.63739 348.033203 309.277344 C 354.161346 302.917297 358.825256 295.515259 362.027344 287.068359 C 365.229462 278.62146 367.085846 269.53894 367.59375 259.822266 C 367.880829 255.052246 368.050262 249.587051 368.105469 243.425781 C 368.160675 237.264496 368.160675 231.058197 368.105469 224.808594 C 368.050262 218.55896 367.880829 212.962311 367.59375 208.015625 C 367.085846 198.298889 365.173859 189.243256 361.861328 180.851563 C 358.548828 172.459839 353.773743 165.140228 347.535156 158.890625 C 341.2966 152.641022 333.551788 147.739014 324.298828 144.183594 C 315.045868 140.628143 304.191376 138.849609 291.736328 138.849609 C 279.28125 138.849609 268.426788 140.628143 259.173828 144.183594 C 249.920898 147.739014 242.176086 152.641022 235.9375 158.890625 C 229.698914 165.140228 224.923843 172.459839 221.611328 180.851563 C 218.298813 189.243256 216.388779 198.298889 215.880859 208.015625 C 215.660034 212.962311 215.504349 218.55896 215.416016 224.808594 C 215.327682 231.058197 215.327682 237.264496 215.416016 243.425781 C 215.504349 249.587051 215.660034 255.052246 215.880859 259.822266 C 216.455032 269.53894 218.325165 278.62146 221.494141 287.068359 C 224.663116 295.515259 229.313263 302.917297 235.441406 309.277344 C 241.56958 315.63739 249.287567 320.623718 258.595703 324.234375 C 267.90387 327.845032 278.950012 329.650391 291.736328 329.650391 Z M 154.101563 327 L 188.453125 327 C 190.330215 327 191.908615 326.358948 193.189453 325.078125 C 194.470291 323.797302 195.111328 322.218872 195.111328 320.341797 L 195.111328 148.158203 C 195.111328 146.281128 194.470291 144.702698 193.189453 143.421875 C 191.908615 142.141022 190.330215 141.5 188.453125 141.5 L 155.261719 141.5 C 154.02504 141.5 152.932007 141.615784 151.982422 141.847656 C 151.032822 142.079529 150.049042 142.58255 149.033203 143.355469 L 87.951172 190.625 C 86.317001 191.684998 85.357399 193.129974 85.070313 194.962891 C 84.783226 196.795807 85.112907 198.529907 86.0625 200.164063 L 101.732422 220.4375 C 103.01326 222.071655 104.487 223.060059 106.154297 223.402344 C 107.821594 223.744659 109.471283 223.330597 111.105469 222.160156 L 147.443359 194.201172 L 147.443359 320.341797 C 147.443359 322.218872 148.084396 323.797302 149.365234 325.078125 C 150.646072 326.358948 152.224472 327 154.101563 327 Z M 291.736328 291.224609 C 282.814606 291.224609 276.249847 288.248352 272.042969 282.296875 C 267.83606 276.345398 265.556458 268.413483 265.203125 258.498047 C 265.092712 253.374695 264.994598 247.98082 264.90625 242.316406 C 264.817932 236.652008 264.817932 230.959869 264.90625 225.240234 C 264.994598 219.52063 265.092712 214.275879 265.203125 209.505859 C 265.556458 199.943726 267.78244 192.125671 271.878906 186.052734 C 275.975403 179.979767 282.593781 176.887756 291.736328 176.777344 C 300.945129 176.887756 307.608002 179.979767 311.726563 186.052734 C 315.845123 192.125671 318.026611 199.943726 318.269531 209.505859 C 318.55661 214.275879 318.727997 219.52063 318.783203 225.240234 C 318.83844 230.959869 318.83844 236.652008 318.783203 242.316406 C 318.727997 247.98082 318.55661 253.374695 318.269531 258.498047 C 318.026611 268.413483 315.818298 276.345398 311.644531 282.296875 C 307.470764 288.248352 300.834686 291.224609 291.736328 291.224609 Z"/>
</svg>
