<?xml version="1.0" encoding="UTF-8"?>
<!-- Generated by Pixelmator Pro 3.4.3 -->
<svg width="472" height="472" viewBox="0 0 472 472" xmlns="http://www.w3.org/2000/svg">
    <path id="circle-05" fill="#ffffff" fill-rule="evenodd" stroke="none" d="M 236 472 C 105.661057 472 0 366.338928 0 236 C 0 105.661041 105.661057 0 236 0 C 366.338959 0 472 105.661041 472 236 C 472 366.338928 366.338959 472 236 472 Z M 319.304688 331.980469 C 335.447632 331.980469 349.245026 329.18866 360.695313 323.601563 C 372.145569 318.014465 380.934326 310.350098 387.0625 300.611328 C 393.190643 290.872559 396.253906 279.77533 396.253906 267.320313 C 396.253906 258.155701 394.510651 249.881058 391.021484 242.494141 C 387.532288 235.107224 382.744141 228.758362 376.660156 223.447266 C 370.576141 218.1362 363.692841 214.062347 356.007813 211.224609 C 348.322754 208.386902 340.284302 206.966797 331.892578 206.966797 C 322.772125 206.966797 315.610809 207.828278 310.410156 209.550781 C 305.209503 211.273315 300.699341 213.414886 296.878906 215.976563 L 300.291016 181.759766 L 377.173828 181.759766 C 379.050903 181.759766 380.631256 181.118713 381.912109 179.837891 C 383.192932 178.557037 383.832031 176.978638 383.832031 175.101563 L 383.832031 150.158203 C 383.832031 148.281128 383.192932 146.702698 381.912109 145.421875 C 380.631256 144.141022 379.050903 143.5 377.173828 143.5 L 270.744141 143.5 C 268.535797 143.5 266.614624 144.167847 264.980469 145.503906 C 263.346283 146.839966 262.384766 148.810181 262.097656 151.416016 L 252.492188 243.869141 C 252.425934 245.459152 252.982605 246.828217 254.164063 247.976563 C 255.345551 249.124893 256.732269 249.699219 258.322266 249.699219 L 293.070313 249.699219 C 294.792816 249.699219 296.360107 249.207321 297.773438 248.224609 C 299.186798 247.241898 300.782837 246.07756 302.560547 244.730469 C 304.338287 243.383377 306.5466 242.217102 309.185547 241.234375 C 311.824524 240.251663 315.252777 239.761719 319.470703 239.761719 C 324.925323 239.761719 329.740295 240.903824 333.914063 243.189453 C 338.08783 245.475098 341.355804 248.571701 343.71875 252.480469 C 346.081665 256.389221 347.261719 260.950409 347.261719 266.162109 C 347.261719 272.080444 345.997284 277.104767 343.46875 281.234375 C 340.940186 285.363983 337.562958 288.476288 333.333984 290.574219 C 329.105011 292.67215 324.483673 293.722656 319.470703 293.722656 C 315.319031 293.722656 311.536896 293.103851 308.125 291.867188 C 304.713104 290.630493 301.721161 288.675995 299.148438 286.003906 C 296.575714 283.331787 294.427582 279.963745 292.705078 275.900391 C 292.108826 274.464966 291.126984 273.282959 289.757813 272.355469 C 288.388641 271.427979 286.554474 270.964844 284.257813 270.964844 L 248.914063 270.964844 C 247.324066 270.964844 245.972626 271.490112 244.857422 272.539063 C 243.742218 273.588013 243.21698 274.906067 243.283203 276.496094 C 243.636566 286.16861 246.666412 295.228882 252.375 303.675781 C 258.083557 312.122681 266.531555 318.952362 277.716797 324.164063 C 288.902069 329.375732 302.764252 331.980469 319.304688 331.980469 Z M 154.873047 331.650391 C 167.659348 331.650391 178.705505 329.845032 188.013672 326.234375 C 197.321823 322.623718 205.03981 317.63739 211.167969 311.277344 C 217.296127 304.917297 221.96196 297.515259 225.164063 289.068359 C 228.36615 280.62146 230.220596 271.538971 230.728516 261.822266 C 231.01561 257.052246 231.186981 251.587051 231.242188 245.425781 C 231.297394 239.264496 231.297394 233.058197 231.242188 226.808594 C 231.186981 220.55896 231.01561 214.962311 230.728516 210.015625 C 230.220596 200.298889 228.310562 191.243256 224.998047 182.851563 C 221.685532 174.459839 216.910446 167.140228 210.671875 160.890625 C 204.433289 154.641022 196.686539 149.739014 187.433594 146.183594 C 178.180649 142.628143 167.328094 140.849609 154.873047 140.849609 C 142.417999 140.849609 131.563492 142.628143 122.310547 146.183594 C 113.057594 149.739014 105.312782 154.641022 99.074219 160.890625 C 92.835648 167.140228 88.058617 174.459839 84.746094 182.851563 C 81.433578 191.243256 79.523544 200.298889 79.015625 210.015625 C 78.794792 214.962311 78.641068 220.55896 78.552734 226.808594 C 78.464401 233.058197 78.464401 239.264496 78.552734 245.425781 C 78.641068 251.587051 78.794792 257.052246 79.015625 261.822266 C 79.58979 271.538971 81.461884 280.62146 84.630859 289.068359 C 87.799835 297.515259 92.448029 304.917297 98.576172 311.277344 C 104.704315 317.63739 112.422295 322.623718 121.730469 326.234375 C 131.03862 329.845032 142.086746 331.650391 154.873047 331.650391 Z M 154.873047 293.224609 C 145.951355 293.224609 139.386581 290.248352 135.179688 284.296875 C 130.972794 278.345398 128.693176 270.413513 128.339844 260.498047 C 128.229431 255.374695 128.129349 249.98082 128.041016 244.316406 C 127.952682 238.652008 127.952682 232.959869 128.041016 227.240234 C 128.129349 221.52063 128.229431 216.275879 128.339844 211.505859 C 128.693176 201.943726 130.917191 194.125671 135.013672 188.052734 C 139.110138 181.979767 145.730515 178.887756 154.873047 178.777344 C 164.081833 178.887756 170.74472 181.979767 174.863281 188.052734 C 178.981842 194.125671 181.16333 201.943726 181.40625 211.505859 C 181.693329 216.275879 181.864716 221.52063 181.919922 227.240234 C 181.975128 232.959869 181.975128 238.652008 181.919922 244.316406 C 181.864716 249.98082 181.693329 255.374695 181.40625 260.498047 C 181.16333 270.413513 178.955017 278.345398 174.78125 284.296875 C 170.607483 290.248352 163.97142 293.224609 154.873047 293.224609 Z"/>
</svg>
