<?xml version="1.0" encoding="UTF-8"?>
<!-- Generated by Pixelmator Pro 3.4.3 -->
<svg width="472" height="472" viewBox="0 0 472 472" xmlns="http://www.w3.org/2000/svg">
    <path id="circle-08" fill="#ffffff" fill-rule="evenodd" stroke="none" d="M 236 472 C 105.661057 472 0 366.338928 0 236 C 0 105.661041 105.661057 0 236 0 C 366.338959 0 472 105.661041 472 236 C 472 366.338928 366.338959 472 236 472 Z M 150.765625 331.650391 C 163.551926 331.650391 174.598099 329.845032 183.90625 326.234375 C 193.214417 322.623718 200.932388 317.63739 207.060547 311.277344 C 213.18869 304.917297 217.854553 297.515259 221.056641 289.068359 C 224.258743 280.62146 226.113174 271.538971 226.621094 261.822266 C 226.908188 257.052246 227.079559 251.587051 227.134766 245.425781 C 227.189972 239.264496 227.189972 233.058197 227.134766 226.808594 C 227.079559 220.55896 226.908188 214.962311 226.621094 210.015625 C 226.113174 200.298889 224.20314 191.243256 220.890625 182.851563 C 217.57811 174.459839 212.80304 167.140228 206.564453 160.890625 C 200.325882 154.641022 192.579117 149.739014 183.326172 146.183594 C 174.073227 142.628143 163.220673 140.849609 150.765625 140.849609 C 138.310577 140.849609 127.456078 142.628143 118.203125 146.183594 C 108.950172 149.739014 101.205368 154.641022 94.966797 160.890625 C 88.728233 167.140228 83.951187 174.459839 80.638672 182.851563 C 77.326157 191.243256 75.416122 200.298889 74.908203 210.015625 C 74.687363 214.962311 74.533646 220.55896 74.445313 226.808594 C 74.356979 233.058197 74.356979 239.264496 74.445313 245.425781 C 74.533646 251.587051 74.687363 257.052246 74.908203 261.822266 C 75.482368 271.538971 77.354462 280.62146 80.523438 289.068359 C 83.692413 297.515259 88.340599 304.917297 94.46875 311.277344 C 100.596901 317.63739 108.314873 322.623718 117.623047 326.234375 C 126.931206 329.845032 137.979324 331.650391 150.765625 331.650391 Z M 319.900391 331.650391 C 337.390411 331.650391 351.900177 329.032593 363.427734 323.798828 C 374.955292 318.565063 383.568085 311.55481 389.265625 302.765625 C 394.963135 293.97644 397.810547 284.270538 397.810547 273.648438 C 397.810547 263.887573 395.459656 255.214569 390.755859 247.628906 C 386.052094 240.043243 379.747681 234.351105 371.841797 230.552734 C 377.914734 226.378967 382.518433 221.183289 385.654297 214.966797 C 388.790131 208.750305 390.357422 201.624329 390.357422 193.585938 C 390.357422 183.692566 387.846252 174.781464 382.822266 166.853516 C 377.798309 158.925568 370.091431 152.610016 359.701172 147.90625 C 349.310913 143.202454 336.043335 140.849609 319.900391 140.849609 C 303.757446 140.849609 290.436218 143.229309 279.935547 147.988281 C 269.434875 152.747253 261.645599 159.118408 256.566406 167.101563 C 251.487213 175.084717 248.947266 184.022614 248.947266 193.916016 C 248.947266 201.954376 250.598907 209.053558 253.900391 215.214844 C 257.201874 221.376099 261.888 226.48938 267.960938 230.552734 C 260.496735 234.57193 254.357147 240.264084 249.542969 247.628906 C 244.72876 254.993744 242.322266 263.555542 242.322266 273.316406 C 242.322266 281.376831 243.907196 288.918884 247.076172 295.941406 C 250.245148 302.963928 255.026764 309.14801 261.419922 314.492188 C 267.81308 319.836365 275.882996 324.030609 285.632813 327.078125 C 295.38266 330.125641 306.804901 331.650391 319.900391 331.650391 Z M 319.900391 297.863281 C 314.313293 297.863281 309.22879 296.879517 304.646484 294.914063 C 300.064178 292.948639 296.448853 290.128052 293.798828 286.451172 C 291.148834 282.774292 289.824219 278.451202 289.824219 273.482422 C 289.824219 268.336975 291.148834 263.969421 293.798828 260.380859 C 296.448853 256.792297 300.064178 254.031906 304.646484 252.099609 C 309.22879 250.167313 314.313293 249.201172 319.900391 249.201172 C 325.553772 249.201172 330.655914 250.167313 335.205078 252.099609 C 339.754272 254.031906 343.353882 256.792297 346.003906 260.380859 C 348.653931 263.969421 349.978516 268.336975 349.978516 273.482422 C 349.978516 278.451202 348.653931 282.774292 346.003906 286.451172 C 343.353882 290.128052 339.754272 292.948639 335.205078 294.914063 C 330.655914 296.879517 325.553772 297.863281 319.900391 297.863281 Z M 150.765625 293.224609 C 141.843933 293.224609 135.27916 290.248352 131.072266 284.296875 C 126.865379 278.345398 124.585754 270.413513 124.232422 260.498047 C 124.122009 255.374695 124.021927 249.98082 123.933594 244.316406 C 123.845261 238.652008 123.845261 232.959869 123.933594 227.240234 C 124.021927 221.52063 124.122009 216.275879 124.232422 211.505859 C 124.585754 201.943726 126.809792 194.125671 130.90625 188.052734 C 135.002731 181.979767 141.623093 178.887756 150.765625 178.777344 C 159.974411 178.887756 166.637299 181.979767 170.755859 188.052734 C 174.87442 194.125671 177.055908 201.943726 177.298828 211.505859 C 177.585907 216.275879 177.757278 221.52063 177.8125 227.240234 C 177.867706 232.959869 177.867706 238.652008 177.8125 244.316406 C 177.757278 249.98082 177.585907 255.374695 177.298828 260.498047 C 177.055908 270.413513 174.847595 278.345398 170.673828 284.296875 C 166.500061 290.248352 159.863983 293.224609 150.765625 293.224609 Z M 319.900391 217.236328 C 314.777039 217.236328 310.217834 216.341492 306.220703 214.552734 C 302.223602 212.763977 299.098206 210.297272 296.845703 207.150391 C 294.593201 204.00351 293.466797 200.310333 293.466797 196.070313 C 293.466797 191.830292 294.593201 188.108337 296.845703 184.90625 C 299.098206 181.704163 302.223602 179.219788 306.220703 177.453125 C 310.217834 175.686462 314.777039 174.802734 319.900391 174.802734 C 325.089996 174.802734 329.695648 175.686462 333.714844 177.453125 C 337.734009 179.219788 340.868561 181.704163 343.121094 184.90625 C 345.373596 188.108337 346.5 191.830292 346.5 196.070313 C 346.5 200.24408 345.342194 203.886261 343.023438 207 C 340.704681 210.11377 337.534821 212.582428 333.515625 214.404297 C 329.496429 216.226196 324.957489 217.170105 319.900391 217.236328 Z"/>
</svg>
