<?xml version="1.0" encoding="UTF-8"?>
<!-- Generated by Pixelmator Pro 3.4.3 -->
<svg width="472" height="472" viewBox="0 0 472 472" xmlns="http://www.w3.org/2000/svg">
    <path id="circle-12" fill="#ffffff" fill-rule="evenodd" stroke="none" d="M 236 472 C 105.661057 472 0 366.338928 0 236 C 0 105.661041 105.661057 0 236 0 C 366.338959 0 472 105.661041 472 236 C 472 366.338928 366.338959 472 236 472 Z M 158.044922 327 L 192.394531 327 C 194.271622 327 195.850021 326.358948 197.130859 325.078125 C 198.411697 323.797302 199.052734 322.218872 199.052734 320.341797 L 199.052734 148.158203 C 199.052734 146.281128 198.411697 144.702698 197.130859 143.421875 C 195.850021 142.141022 194.271622 141.5 192.394531 141.5 L 159.203125 141.5 C 157.966461 141.5 156.873428 141.615784 155.923828 141.847656 C 154.974243 142.079529 153.992401 142.58255 152.976563 143.355469 L 91.892578 190.625 C 90.2584 191.684998 89.298798 193.129974 89.011719 194.962891 C 88.724632 196.795807 89.056274 198.529907 90.005859 200.164063 L 105.673828 220.4375 C 106.954666 222.071655 108.428398 223.060059 110.095703 223.402344 C 111.763 223.744659 113.412704 223.330597 115.046875 222.160156 L 151.386719 194.201172 L 151.386719 320.341797 C 151.386719 322.218872 152.025803 323.797302 153.306641 325.078125 C 154.587479 326.358948 156.167831 327 158.044922 327 Z M 223.400391 327 L 359.542969 327 C 361.486328 327 363.098053 326.358948 364.378906 325.078125 C 365.659729 323.797302 366.300781 322.218872 366.300781 320.341797 L 366.300781 293.675781 C 366.300781 291.732422 365.659729 290.120667 364.378906 288.839844 C 363.098053 287.559021 361.486328 286.917969 359.542969 286.917969 L 291.306641 286.917969 L 315.71875 262.439453 C 325.347137 255.21817 333.634827 248.183762 340.580078 241.337891 C 347.52533 234.492035 352.885834 227.332672 356.662109 219.857422 C 360.438385 212.382172 362.326172 204.250153 362.326172 195.460938 C 362.326172 184.110046 359.588043 174.150391 354.111328 165.582031 C 348.634644 157.013641 340.656311 150.306305 330.177734 145.458984 C 319.699127 140.611664 306.918915 138.1875 291.835938 138.1875 C 280.992981 138.1875 271.177887 139.799255 262.388672 143.023438 C 253.599487 146.24762 246.062042 150.70871 239.779297 156.40625 C 233.496552 162.10379 228.62793 168.673096 225.171875 176.115234 C 221.71582 183.557343 219.899323 191.551361 219.722656 200.097656 C 219.722656 201.621429 220.263626 202.92572 221.345703 204.007813 C 222.427795 205.089905 223.796875 205.630859 225.453125 205.630859 L 258.578125 205.630859 C 260.521484 205.630859 262.337952 205.199127 264.027344 204.337891 C 265.716736 203.476624 266.869934 201.876007 267.488281 199.535156 C 268.21701 195.80304 269.488007 192.196869 271.298828 188.71875 C 273.10968 185.240601 275.714386 182.38208 279.115234 180.140625 C 282.516083 177.899139 286.812347 176.777344 292.001953 176.777344 C 299.576569 176.777344 304.914856 178.75412 308.017578 182.707031 C 311.1203 186.659973 312.671875 191.628693 312.671875 197.613281 C 312.671875 202.869141 310.463562 208.41217 306.046875 214.242188 C 301.630188 220.072235 294.867218 226.719391 285.757813 234.183594 C 276.648376 241.647797 265.037079 250.734879 250.925781 261.445313 L 223.367188 288.507813 C 220.341751 290.804504 218.480774 293.235199 217.785156 295.796875 C 217.089523 298.358551 216.742188 300.301941 216.742188 301.626953 L 216.742188 320.341797 C 216.742188 322.218872 217.381271 323.797302 218.662109 325.078125 C 219.942947 326.358948 221.5233 327 223.400391 327 Z"/>
</svg>
