<?xml version="1.0" encoding="UTF-8"?>
<!-- Generated by Pixelmator Pro 3.4.3 -->
<svg width="472" height="472" viewBox="0 0 472 472" xmlns="http://www.w3.org/2000/svg">
    <path id="circle-01" fill="#ffffff" fill-rule="evenodd" stroke="none" d="M 236 472 C 105.661057 472 0 366.338928 0 236 C 0 105.661041 105.661057 0 236 0 C 366.338959 0 472 105.661041 472 236 C 472 366.338928 366.338959 472 236 472 Z M 176.53125 331.650391 C 189.317551 331.650391 200.365677 329.845032 209.673828 326.234375 C 218.981979 322.623718 226.699966 317.63739 232.828125 311.277344 C 238.956268 304.917297 243.622131 297.515259 246.824219 289.068359 C 250.026337 280.62146 251.880768 271.538971 252.388672 261.822266 C 252.675781 257.052246 252.847137 251.587051 252.902344 245.425781 C 252.95755 239.264496 252.95755 233.058197 252.902344 226.808594 C 252.847137 220.55896 252.675781 214.962311 252.388672 210.015625 C 251.880768 200.298889 249.970734 191.243256 246.658203 182.851563 C 243.345703 174.459839 238.570602 167.140228 232.332031 160.890625 C 226.09346 154.641022 218.34671 149.739014 209.09375 146.183594 C 199.840805 142.628143 188.986298 140.849609 176.53125 140.849609 C 164.076202 140.849609 153.223663 142.628143 143.970703 146.183594 C 134.717758 149.739014 126.970985 154.641022 120.732422 160.890625 C 114.493858 167.140228 109.718781 174.459839 106.40625 182.851563 C 103.093742 191.243256 101.183701 200.298889 100.675781 210.015625 C 100.454948 214.962311 100.301224 220.55896 100.212891 226.808594 C 100.124557 233.058197 100.124557 239.264496 100.212891 245.425781 C 100.301224 251.587051 100.454948 257.052246 100.675781 261.822266 C 101.249954 271.538971 103.122047 280.62146 106.291016 289.068359 C 109.459991 297.515259 114.108177 304.917297 120.236328 311.277344 C 126.364479 317.63739 134.082474 322.623718 143.390625 326.234375 C 152.698776 329.845032 163.744965 331.650391 176.53125 331.650391 Z M 329.636719 329 L 363.986328 329 C 365.863403 329 367.441803 328.358948 368.722656 327.078125 C 370.003479 325.797302 370.644531 324.218872 370.644531 322.341797 L 370.644531 150.158203 C 370.644531 148.281128 370.003479 146.702698 368.722656 145.421875 C 367.441803 144.141022 365.863403 143.5 363.986328 143.5 L 330.794922 143.5 C 329.558258 143.5 328.46521 143.615784 327.515625 143.847656 C 326.56604 144.079529 325.584198 144.58255 324.568359 145.355469 L 263.484375 192.625 C 261.850189 193.684998 260.890625 195.129974 260.603516 196.962891 C 260.316437 198.795807 260.648071 200.529907 261.597656 202.164063 L 277.265625 222.4375 C 278.546448 224.071655 280.020203 225.060059 281.6875 225.402344 C 283.354797 225.744659 285.00647 225.330597 286.640625 224.160156 L 322.978516 196.201172 L 322.978516 322.341797 C 322.978516 324.218872 323.617615 325.797302 324.898438 327.078125 C 326.179291 328.358948 327.759644 329 329.636719 329 Z M 176.53125 293.224609 C 167.609558 293.224609 161.046738 290.248352 156.839844 284.296875 C 152.63295 278.345398 150.353333 270.413513 150 260.498047 C 149.889572 255.374695 149.789505 249.98082 149.701172 244.316406 C 149.612839 238.652008 149.612839 232.959869 149.701172 227.240234 C 149.789505 221.52063 149.889572 216.275879 150 211.505859 C 150.353333 201.943726 152.577347 194.125671 156.673828 188.052734 C 160.770309 181.979767 167.388733 178.887756 176.53125 178.777344 C 185.740036 178.887756 192.404861 181.979767 196.523438 188.052734 C 200.641998 194.125671 202.821533 201.943726 203.064453 211.505859 C 203.351547 216.275879 203.522919 221.52063 203.578125 227.240234 C 203.633331 232.959869 203.633331 238.652008 203.578125 244.316406 C 203.522919 249.98082 203.351547 255.374695 203.064453 260.498047 C 202.821533 270.413513 200.613235 278.345398 196.439453 284.296875 C 192.265686 290.248352 185.629623 293.224609 176.53125 293.224609 Z"/>
</svg>
