<?xml version="1.0" encoding="UTF-8"?>
<!-- Generated by Pixelmator Pro 3.4.3 -->
<svg width="472" height="472" viewBox="0 0 472 472" xmlns="http://www.w3.org/2000/svg">
    <path id="circle-04" fill="#ffffff" fill-rule="evenodd" stroke="none" d="M 236 472 C 105.661057 472 0 366.338928 0 236 C 0 105.661041 105.661057 0 236 0 C 366.338959 0 472 105.661041 472 236 C 472 366.338928 366.338959 472 236 472 Z M 149.003906 331.650391 C 161.790207 331.650391 172.83638 329.845032 182.144531 326.234375 C 191.452698 322.623718 199.170685 317.63739 205.298828 311.277344 C 211.426987 304.917297 216.092819 297.515259 219.294922 289.068359 C 222.497025 280.62146 224.351456 271.538971 224.859375 261.822266 C 225.146454 257.052246 225.317825 251.587051 225.373047 245.425781 C 225.428253 239.264496 225.428253 233.058197 225.373047 226.808594 C 225.317825 220.55896 225.146454 214.962311 224.859375 210.015625 C 224.351456 200.298889 222.441422 191.243256 219.128906 182.851563 C 215.816391 174.459839 211.041306 167.140228 204.802734 160.890625 C 198.564163 154.641022 190.817398 149.739014 181.564453 146.183594 C 172.311508 142.628143 161.458954 140.849609 149.003906 140.849609 C 136.548859 140.849609 125.694359 142.628143 116.441406 146.183594 C 107.188454 149.739014 99.441689 154.641022 93.203125 160.890625 C 86.964561 167.140228 82.189468 174.459839 78.876953 182.851563 C 75.564438 191.243256 73.654404 200.298889 73.146484 210.015625 C 72.925652 214.962311 72.771927 220.55896 72.683594 226.808594 C 72.595253 233.058197 72.595253 239.264496 72.683594 245.425781 C 72.771927 251.587051 72.925652 257.052246 73.146484 261.822266 C 73.720657 271.538971 75.592743 280.62146 78.761719 289.068359 C 81.930687 297.515259 86.578888 304.917297 92.707031 311.277344 C 98.835182 317.63739 106.553169 322.623718 115.861328 326.234375 C 125.169502 329.845032 136.217606 331.650391 149.003906 331.650391 Z M 331.753906 329 L 364.447266 329 C 366.324371 329 367.904724 328.358948 369.185547 327.078125 C 370.4664 325.797302 371.105469 324.218872 371.105469 322.341797 L 371.105469 292.5625 L 394.724609 292.5625 C 396.601715 292.5625 398.180115 291.921448 399.460938 290.640625 C 400.741791 289.359802 401.382813 287.781372 401.382813 285.904297 L 401.382813 259.636719 C 401.382813 257.759644 400.770538 256.179291 399.544922 254.898438 C 398.319275 253.617599 396.656525 252.978516 394.558594 252.978516 L 371.105469 252.978516 L 371.105469 150.158203 C 371.105469 148.281128 370.4664 146.702698 369.185547 145.421875 C 367.904724 144.141022 366.324371 143.5 364.447266 143.5 L 325.923828 143.5 C 321.727997 143.5 318.459991 145.002502 316.119141 148.005859 L 239.037109 252.513672 C 238.242126 253.617844 237.55658 254.855423 236.982422 256.224609 C 236.408264 257.593781 236.121094 259.062927 236.121094 260.630859 L 236.121094 285.904297 C 236.121094 287.781372 236.762146 289.359802 238.042969 290.640625 C 239.323822 291.921448 240.902191 292.5625 242.779297 292.5625 L 325.095703 292.5625 L 325.095703 322.341797 C 325.095703 324.218872 325.736725 325.797302 327.017578 327.078125 C 328.298431 328.358948 329.876801 329 331.753906 329 Z M 149.003906 293.224609 C 140.082214 293.224609 133.517441 290.248352 129.310547 284.296875 C 125.103661 278.345398 122.824036 270.413513 122.470703 260.498047 C 122.360291 255.374695 122.260208 249.98082 122.171875 244.316406 C 122.083542 238.652008 122.083542 232.959869 122.171875 227.240234 C 122.260208 221.52063 122.360291 216.275879 122.470703 211.505859 C 122.824036 201.943726 125.048058 194.125671 129.144531 188.052734 C 133.241013 181.979767 139.861374 178.887756 149.003906 178.777344 C 158.212677 178.887756 164.87558 181.979767 168.994141 188.052734 C 173.112701 194.125671 175.294189 201.943726 175.537109 211.505859 C 175.824188 216.275879 175.993622 221.52063 176.048828 227.240234 C 176.104034 232.959869 176.104034 238.652008 176.048828 244.316406 C 175.993622 249.98082 175.824188 255.374695 175.537109 260.498047 C 175.294189 270.413513 173.085876 278.345398 168.912109 284.296875 C 164.738327 290.248352 158.102264 293.224609 149.003906 293.224609 Z M 281.734375 254.800781 L 326.255859 192.292969 L 326.255859 254.800781 L 281.734375 254.800781 Z"/>
</svg>
