<?xml version="1.0" encoding="UTF-8"?>
<!-- Generated by Pixelmator Pro 3.4.3 -->
<svg width="472" height="472" viewBox="0 0 472 472" xmlns="http://www.w3.org/2000/svg">
    <path id="circle-03" fill="#ffffff" fill-rule="evenodd" stroke="none" d="M 236 472 C 105.661057 472 0 366.338928 0 236 C 0 105.661041 105.661057 0 236 0 C 366.338959 0 472 105.661041 472 236 C 472 366.338928 366.338959 472 236 472 Z M 153.099609 331.650391 C 165.88591 331.650391 176.934021 329.845032 186.242188 326.234375 C 195.550339 322.623718 203.268326 317.63739 209.396484 311.277344 C 215.524628 304.917297 220.188538 297.515259 223.390625 289.068359 C 226.592728 280.62146 228.449112 271.538971 228.957031 261.822266 C 229.244125 257.052246 229.415497 251.587051 229.470703 245.425781 C 229.525909 239.264496 229.525909 233.058197 229.470703 226.808594 C 229.415497 220.55896 229.244125 214.962311 228.957031 210.015625 C 228.449112 200.298889 226.539078 191.243256 223.226563 182.851563 C 219.914047 174.459839 215.137024 167.140228 208.898438 160.890625 C 202.659866 154.641022 194.915054 149.739014 185.662109 146.183594 C 176.409164 142.628143 165.554657 140.849609 153.099609 140.849609 C 140.644562 140.849609 129.792007 142.628143 120.539063 146.183594 C 111.28611 149.739014 103.539352 154.641022 97.300781 160.890625 C 91.062218 167.140228 86.287125 174.459839 82.974609 182.851563 C 79.662094 191.243256 77.75206 200.298889 77.244141 210.015625 C 77.023308 214.962311 76.869583 220.55896 76.78125 226.808594 C 76.692917 233.058197 76.692917 239.264496 76.78125 245.425781 C 76.869583 251.587051 77.023308 257.052246 77.244141 261.822266 C 77.818306 271.538971 79.690399 280.62146 82.859375 289.068359 C 86.028351 297.515259 90.676537 304.917297 96.804688 311.277344 C 102.932838 317.63739 110.65081 322.623718 119.958984 326.234375 C 129.267136 329.845032 140.313309 331.650391 153.099609 331.650391 Z M 318.791016 331.650391 C 333.851929 331.650391 347.228699 329.26416 358.921875 324.494141 C 370.615082 319.724121 379.835541 312.956543 386.582031 304.189453 C 393.328522 295.422363 396.701172 285.044006 396.701172 273.052734 C 396.701172 261.657715 394.432678 252.21022 389.894531 244.712891 C 385.356384 237.215546 379.118683 231.429871 371.179688 227.355469 C 363.240692 223.281097 354.224945 220.582825 344.132813 219.257813 L 342.144531 218.759766 L 382.490234 181.294922 C 383.572327 180.477844 384.527313 179.340302 385.355469 177.882813 C 386.183594 176.425293 386.597656 174.726532 386.597656 172.783203 L 386.597656 150.257813 C 386.597656 148.314453 385.958588 146.702698 384.677734 145.421875 C 383.396912 144.141022 381.785126 143.5 379.841797 143.5 L 257.974609 143.5 C 256.097534 143.5 254.517181 144.141022 253.236328 145.421875 C 251.955505 146.702698 251.316406 148.314453 251.316406 150.257813 L 251.316406 175.101563 C 251.316406 176.978638 251.955505 178.557037 253.236328 179.837891 C 254.517181 181.118713 256.097534 181.759766 257.974609 181.759766 L 331.544922 181.759766 L 288.050781 218.494141 C 287.012848 219.267059 286.053284 220.41568 285.169922 221.939453 C 284.286591 223.463196 283.84375 225.31958 283.84375 227.505859 L 283.84375 242.412109 C 283.84375 244.2892 284.484802 245.867584 285.765625 247.148438 C 287.046478 248.429276 288.624878 249.070313 290.501953 249.070313 L 319.951172 249.070313 C 328.696228 249.070313 335.452606 250.708893 340.222656 253.988281 C 344.992676 257.26767 347.378906 262.628204 347.378906 270.070313 C 347.378906 277.402039 344.883453 283.14978 339.892578 287.3125 C 334.901733 291.47522 327.922913 293.556641 318.957031 293.556641 C 314.253265 293.556641 309.97467 293.136047 306.121094 292.296875 C 302.267548 291.457703 298.955078 289.983978 296.183594 287.875 C 293.41214 285.766052 291.330688 283.012177 289.939453 279.611328 C 288.90152 277.844666 287.775116 276.580261 286.560547 275.818359 C 285.345947 275.056488 283.700836 274.675781 281.625 274.675781 L 246.943359 274.675781 C 245.353333 274.675781 243.999969 275.199097 242.884766 276.248047 C 241.769562 277.296997 241.212891 278.617004 241.212891 280.207031 C 241.389557 285.705811 242.990204 291.424805 246.015625 297.365234 C 249.041077 303.305664 253.63559 308.866333 259.796875 314.044922 C 265.95816 319.22348 273.918793 323.45108 283.679688 326.730469 C 293.440552 330.009857 305.143433 331.650391 318.791016 331.650391 Z M 153.099609 293.224609 C 144.177917 293.224609 137.615097 290.248352 133.408203 284.296875 C 129.201309 278.345398 126.919739 270.413513 126.566406 260.498047 C 126.455994 255.374695 126.357864 249.98082 126.269531 244.316406 C 126.181198 238.652008 126.181198 232.959869 126.269531 227.240234 C 126.357864 221.52063 126.455994 216.275879 126.566406 211.505859 C 126.919739 201.943726 129.145706 194.125671 133.242188 188.052734 C 137.338654 181.979767 143.957077 178.887756 153.099609 178.777344 C 162.308395 178.887756 168.973236 181.979767 173.091797 188.052734 C 177.210358 194.125671 179.389893 201.943726 179.632813 211.505859 C 179.919891 216.275879 180.091263 221.52063 180.146484 227.240234 C 180.201691 232.959869 180.201691 238.652008 180.146484 244.316406 C 180.091263 249.98082 179.919891 255.374695 179.632813 260.498047 C 179.389893 270.413513 177.18158 278.345398 173.007813 284.296875 C 168.834045 290.248352 162.197968 293.224609 153.099609 293.224609 Z"/>
</svg>
